<svg width="1440px" height="743px" viewBox="0 0 1440 743" version="1.1" xmlns:xlink="http://www.w3.org/1999/xlink" xmlns="http://www.w3.org/2000/svg">
  <defs>
    <linearGradient x1="1" y1="0.5" x2="0.00266575161" y2="0.5" id="gradient_1">
      <stop offset="0" stop-color="#FFFFFF" stop-opacity="0" />
      <stop offset="1" stop-color="#FFFFFF" />
    </linearGradient>
    <linearGradient x1="1" y1="0.5" x2="0.00266575161" y2="0.5" id="gradient_2">
      <stop offset="0" stop-color="#FFFFFF" />
      <stop offset="1" stop-color="#FFFFFF" stop-opacity="0" />
    </linearGradient>
    <path d="M0 0L1440 0L1440 740L0 740L0 0Z" id="path_1" />
    <clipPath id="mask_1">
      <use xlink:href="#path_1" />
    </clipPath>
  </defs>
  <g id="Background" transform="translate(0 1.5)">
    <g id="Base">
      <path d="M0 0L1440 0L1440 740L0 740L0 0Z" id="Mask" fill="#264EEE" stroke="none" />
      <g clip-path="url(#mask_1)">
        <path d="M1186 593C1186 920.505 920.505 1186 593 1186C265.495 1186 0 920.505 0 593C0 265.495 265.495 0 593 0C920.505 0 1186 265.495 1186 593ZM200 593C200 810.048 375.952 986 593 986C810.048 986 986 810.048 986 593C986 375.952 810.048 200 593 200C375.952 200 200 375.952 200 593Z" transform="translate(-693 -740)" id="Oval" fill="url(#gradient_1)" fill-opacity="0.149999991" fill-rule="evenodd" stroke="none" />
        <path d="M1186 593C1186 920.505 920.505 1186 593 1186C265.495 1186 0 920.505 0 593C0 265.495 265.495 0 593 0C920.505 0 1186 265.495 1186 593ZM200 593C200 810.048 375.952 986 593 986C810.048 986 986 810.048 986 593C986 375.952 810.048 200 593 200C375.952 200 200 375.952 200 593Z" transform="translate(968 126)" id="Oval" fill="url(#gradient_2)" fill-opacity="0.149999991" fill-rule="evenodd" stroke="none" />
      </g>
    </g>
    <path d="M1440 175L0 175L0 0C240 53.3333 480 80 720 80C960 80 1200 53.3333 1440 0L1440 175Z" transform="translate(0 565)" id="Wave" fill="#FFFFFF" stroke="none" />
  </g>
</svg>