<svg width="699px" height="815px" viewBox="0 0 699 815" version="1.1" xmlns:xlink="http://www.w3.org/1999/xlink" xmlns="http://www.w3.org/2000/svg">
  <defs>
    <path d="M385.307 0C598.095 -0.0114633 770.584 172.544 770.572 385.414C770.572 389.631 770.504 393.833 770.37 398.017L0.201406 398.059C0.0672513 393.874 -0.000226619 389.673 5.71774e-07 385.455C0.0114683 172.586 172.519 0.0114633 385.307 0Z" transform="matrix(0.7071068 -0.7071068 0.7071068 0.7071068 0 532.7999)" id="path_1" />
    <clipPath id="mask_1">
      <use xlink:href="#path_1" />
    </clipPath>
  </defs>
  <path d="M385.307 0C598.095 -0.0114633 770.584 172.544 770.572 385.414C770.572 389.631 770.504 393.833 770.37 398.017L0.201406 398.059C0.0672513 393.874 -0.000226619 389.673 5.71774e-07 385.455C0.0114683 172.586 172.519 0.0114633 385.307 0Z" transform="matrix(0.7071068 -0.7071068 0.7071068 0.7071068 0 532.7999)" id="Path" fill="#1565D8" stroke="none" />
</svg>