<svg width="526px" height="421px" viewBox="0 0 526 421" version="1.1" xmlns:xlink="http://www.w3.org/1999/xlink" xmlns="http://www.w3.org/2000/svg">
  <defs>
    <linearGradient x1="0.5" y1="0" x2="0.5" y2="1" id="gradient_1">
      <stop offset="0" stop-color="#FAFBFB" stop-opacity="0" />
      <stop offset="1" stop-color="#F3F7FC" />
    </linearGradient>
  </defs>
  <path d="M1186 593C1186 920.505 920.505 1186 593 1186C265.495 1186 0 920.505 0 593C0 265.495 265.495 0 593 0C920.505 0 1186 265.495 1186 593ZM200 593C200 810.048 375.952 986 593 986C810.048 986 986 810.048 986 593C986 375.952 810.048 200 593 200C375.952 200 200 375.952 200 593Z" transform="translate(-660 -765)" id="Oval" fill="url(#gradient_1)" fill-rule="evenodd" stroke="none" />
</svg>