<svg width="123px" height="142px" viewBox="0 0 123 142" version="1.1" xmlns:xlink="http://www.w3.org/1999/xlink" xmlns="http://www.w3.org/2000/svg">
  <path d="M7.28358 3.63871C7.28358 5.64831 5.6531 7.27742 3.64179 7.27742C1.63049 7.27742 0 5.64831 0 3.63871C0 1.62911 1.63049 0 3.64179 0C5.6531 0 7.28358 1.62911 7.28358 3.63871ZM22.7612 7.27742C24.7725 7.27742 26.403 5.64831 26.403 3.63871C26.403 1.62911 24.7725 0 22.7612 0C20.7499 0 19.1194 1.62911 19.1194 3.63871C19.1194 5.64831 20.7499 7.27742 22.7612 7.27742ZM45.5224 3.63871C45.5224 5.64831 43.8919 7.27742 41.8806 7.27742C39.8693 7.27742 38.2388 5.64831 38.2388 3.63871C38.2388 1.62911 39.8693 0 41.8806 0C43.8919 0 45.5224 1.62911 45.5224 3.63871ZM60.9999 7.27742C63.0113 7.27742 64.6417 5.64831 64.6417 3.63871C64.6417 1.62911 63.0113 0 60.9999 0C58.9886 0 57.3582 1.62911 57.3582 3.63871C57.3582 5.64831 58.9886 7.27742 60.9999 7.27742ZM83.7611 3.63871C83.7611 5.64831 82.1306 7.27742 80.1193 7.27742C78.108 7.27742 76.4775 5.64831 76.4775 3.63871C76.4775 1.62911 78.108 0 80.1193 0C82.1306 0 83.7611 1.62911 83.7611 3.63871ZM99.2387 7.27742C101.25 7.27742 102.881 5.64831 102.881 3.63871C102.881 1.62911 101.25 0 99.2387 0C97.2274 0 95.5969 1.62911 95.5969 3.63871C95.5969 5.64831 97.2274 7.27742 99.2387 7.27742ZM122 3.63871C122 5.64831 120.369 7.27742 118.358 7.27742C116.347 7.27742 114.716 5.64831 114.716 3.63871C114.716 1.62911 116.347 0 118.358 0C120.369 0 122 1.62911 122 3.63871ZM3.64179 26.3807C5.6531 26.3807 7.28358 24.7516 7.28358 22.742C7.28358 20.7324 5.6531 19.1033 3.64179 19.1033C1.63049 19.1033 0 20.7324 0 22.742C0 24.7516 1.63049 26.3807 3.64179 26.3807ZM26.403 22.742C26.403 24.7516 24.7725 26.3807 22.7612 26.3807C20.7499 26.3807 19.1194 24.7516 19.1194 22.742C19.1194 20.7324 20.7499 19.1033 22.7612 19.1033C24.7725 19.1033 26.403 20.7324 26.403 22.742ZM41.8806 26.3807C43.8919 26.3807 45.5224 24.7516 45.5224 22.742C45.5224 20.7324 43.8919 19.1033 41.8806 19.1033C39.8693 19.1033 38.2388 20.7324 38.2388 22.742C38.2388 24.7516 39.8693 26.3807 41.8806 26.3807ZM64.6417 22.742C64.6417 24.7516 63.0113 26.3807 60.9999 26.3807C58.9886 26.3807 57.3582 24.7516 57.3582 22.742C57.3582 20.7324 58.9886 19.1033 60.9999 19.1033C63.0113 19.1033 64.6417 20.7324 64.6417 22.742ZM80.1193 26.3807C82.1306 26.3807 83.7611 24.7516 83.7611 22.742C83.7611 20.7324 82.1306 19.1033 80.1193 19.1033C78.108 19.1033 76.4775 20.7324 76.4775 22.742C76.4775 24.7516 78.108 26.3807 80.1193 26.3807ZM102.881 22.742C102.881 24.7516 101.25 26.3807 99.2387 26.3807C97.2274 26.3807 95.5969 24.7516 95.5969 22.742C95.5969 20.7324 97.2274 19.1033 99.2387 19.1033C101.25 19.1033 102.881 20.7324 102.881 22.742ZM118.358 26.3807C120.369 26.3807 122 24.7516 122 22.742C122 20.7324 120.369 19.1033 118.358 19.1033C116.347 19.1033 114.716 20.7324 114.716 22.742C114.716 24.7516 116.347 26.3807 118.358 26.3807ZM7.28358 41.8451C7.28358 43.8547 5.6531 45.4838 3.64179 45.4838C1.63049 45.4838 0 43.8547 0 41.8451C0 39.8355 1.63049 38.2064 3.64179 38.2064C5.6531 38.2064 7.28358 39.8355 7.28358 41.8451ZM22.7612 45.4838C24.7725 45.4838 26.403 43.8547 26.403 41.8451C26.403 39.8355 24.7725 38.2064 22.7612 38.2064C20.7499 38.2064 19.1194 39.8355 19.1194 41.8451C19.1194 43.8547 20.7499 45.4838 22.7612 45.4838ZM45.5224 41.8451C45.5224 43.8547 43.8919 45.4838 41.8806 45.4838C39.8693 45.4838 38.2388 43.8547 38.2388 41.8451C38.2388 39.8355 39.8693 38.2064 41.8806 38.2064C43.8919 38.2064 45.5224 39.8355 45.5224 41.8451ZM60.9999 45.4838C63.0113 45.4838 64.6417 43.8547 64.6417 41.8451C64.6417 39.8355 63.0113 38.2064 60.9999 38.2064C58.9886 38.2064 57.3582 39.8355 57.3582 41.8451C57.3582 43.8547 58.9886 45.4838 60.9999 45.4838ZM83.7611 41.8451C83.7611 43.8547 82.1306 45.4838 80.1193 45.4838C78.108 45.4838 76.4775 43.8547 76.4775 41.8451C76.4775 39.8355 78.108 38.2064 80.1193 38.2064C82.1306 38.2064 83.7611 39.8355 83.7611 41.8451ZM99.2387 45.4838C101.25 45.4838 102.881 43.8547 102.881 41.8451C102.881 39.8355 101.25 38.2064 99.2387 38.2064C97.2274 38.2064 95.5969 39.8355 95.5969 41.8451C95.5969 43.8547 97.2274 45.4838 99.2387 45.4838ZM122 41.8451C122 43.8547 120.369 45.4838 118.358 45.4838C116.347 45.4838 114.716 43.8547 114.716 41.8451C114.716 39.8355 116.347 38.2064 118.358 38.2064C120.369 38.2064 122 39.8355 122 41.8451ZM3.64179 64.5871C5.6531 64.5871 7.28358 62.958 7.28358 60.9484C7.28358 58.9388 5.6531 57.3097 3.64179 57.3097C1.63049 57.3097 0 58.9388 0 60.9484C0 62.958 1.63049 64.5871 3.64179 64.5871ZM26.403 60.9484C26.403 62.958 24.7725 64.5871 22.7612 64.5871C20.7499 64.5871 19.1194 62.958 19.1194 60.9484C19.1194 58.9388 20.7499 57.3097 22.7612 57.3097C24.7725 57.3097 26.403 58.9388 26.403 60.9484ZM41.8806 64.5871C43.8919 64.5871 45.5224 62.958 45.5224 60.9484C45.5224 58.9388 43.8919 57.3097 41.8806 57.3097C39.8693 57.3097 38.2388 58.9388 38.2388 60.9484C38.2388 62.958 39.8693 64.5871 41.8806 64.5871ZM64.6417 60.9484C64.6417 62.958 63.0113 64.5871 60.9999 64.5871C58.9886 64.5871 57.3582 62.958 57.3582 60.9484C57.3582 58.9388 58.9886 57.3097 60.9999 57.3097C63.0113 57.3097 64.6417 58.9388 64.6417 60.9484ZM80.1193 64.5871C82.1306 64.5871 83.7611 62.958 83.7611 60.9484C83.7611 58.9388 82.1306 57.3097 80.1193 57.3097C78.108 57.3097 76.4775 58.9388 76.4775 60.9484C76.4775 62.958 78.108 64.5871 80.1193 64.5871ZM102.881 60.9484C102.881 62.958 101.25 64.5871 99.2387 64.5871C97.2274 64.5871 95.5969 62.958 95.5969 60.9484C95.5969 58.9388 97.2274 57.3097 99.2387 57.3097C101.25 57.3097 102.881 58.9388 102.881 60.9484ZM118.358 64.5871C120.369 64.5871 122 62.958 122 60.9484C122 58.9388 120.369 57.3097 118.358 57.3097C116.347 57.3097 114.716 58.9388 114.716 60.9484C114.716 62.958 116.347 64.5871 118.358 64.5871ZM7.28358 80.0516C7.28358 82.0612 5.6531 83.6903 3.64179 83.6903C1.63049 83.6903 0 82.0612 0 80.0516C0 78.0419 1.63049 76.4128 3.64179 76.4128C5.6531 76.4128 7.28358 78.0419 7.28358 80.0516ZM22.7612 83.6903C24.7725 83.6903 26.403 82.0612 26.403 80.0516C26.403 78.0419 24.7725 76.4128 22.7612 76.4128C20.7499 76.4128 19.1194 78.0419 19.1194 80.0516C19.1194 82.0612 20.7499 83.6903 22.7612 83.6903ZM45.5224 80.0516C45.5224 82.0612 43.8919 83.6903 41.8806 83.6903C39.8693 83.6903 38.2388 82.0612 38.2388 80.0516C38.2388 78.0419 39.8693 76.4128 41.8806 76.4128C43.8919 76.4128 45.5224 78.0419 45.5224 80.0516ZM60.9999 83.6903C63.0113 83.6903 64.6417 82.0612 64.6417 80.0516C64.6417 78.0419 63.0113 76.4128 60.9999 76.4128C58.9886 76.4128 57.3582 78.0419 57.3582 80.0516C57.3582 82.0612 58.9886 83.6903 60.9999 83.6903ZM83.7611 80.0516C83.7611 82.0612 82.1306 83.6903 80.1193 83.6903C78.108 83.6903 76.4775 82.0612 76.4775 80.0516C76.4775 78.0419 78.108 76.4128 80.1193 76.4128C82.1306 76.4128 83.7611 78.0419 83.7611 80.0516ZM99.2387 83.6903C101.25 83.6903 102.881 82.0612 102.881 80.0516C102.881 78.0419 101.25 76.4128 99.2387 76.4128C97.2274 76.4128 95.5969 78.0419 95.5969 80.0516C95.5969 82.0612 97.2274 83.6903 99.2387 83.6903ZM122 80.0516C122 82.0612 120.369 83.6903 118.358 83.6903C116.347 83.6903 114.716 82.0612 114.716 80.0516C114.716 78.0419 116.347 76.4128 118.358 76.4128C120.369 76.4128 122 78.0419 122 80.0516ZM3.64179 102.794C5.6531 102.794 7.28358 101.164 7.28358 99.1548C7.28358 97.1452 5.6531 95.5161 3.64179 95.5161C1.63049 95.5161 0 97.1452 0 99.1548C0 101.164 1.63049 102.794 3.64179 102.794ZM26.403 99.1548C26.403 101.164 24.7725 102.794 22.7612 102.794C20.7499 102.794 19.1194 101.164 19.1194 99.1548C19.1194 97.1452 20.7499 95.5161 22.7612 95.5161C24.7725 95.5161 26.403 97.1452 26.403 99.1548ZM41.8806 102.794C43.8919 102.794 45.5224 101.164 45.5224 99.1548C45.5224 97.1452 43.8919 95.5161 41.8806 95.5161C39.8693 95.5161 38.2388 97.1452 38.2388 99.1548C38.2388 101.164 39.8693 102.794 41.8806 102.794ZM64.6417 99.1548C64.6417 101.164 63.0113 102.794 60.9999 102.794C58.9886 102.794 57.3582 101.164 57.3582 99.1548C57.3582 97.1452 58.9886 95.5161 60.9999 95.5161C63.0113 95.5161 64.6417 97.1452 64.6417 99.1548ZM80.1193 102.794C82.1306 102.794 83.7611 101.164 83.7611 99.1548C83.7611 97.1452 82.1306 95.5161 80.1193 95.5161C78.108 95.5161 76.4775 97.1452 76.4775 99.1548C76.4775 101.164 78.108 102.794 80.1193 102.794ZM102.881 99.1548C102.881 101.164 101.25 102.794 99.2387 102.794C97.2274 102.794 95.5969 101.164 95.5969 99.1548C95.5969 97.1452 97.2274 95.5161 99.2387 95.5161C101.25 95.5161 102.881 97.1452 102.881 99.1548ZM118.358 102.794C120.369 102.794 122 101.164 122 99.1548C122 97.1452 120.369 95.5161 118.358 95.5161C116.347 95.5161 114.716 97.1452 114.716 99.1548C114.716 101.164 116.347 102.794 118.358 102.794ZM7.28358 118.258C7.28358 120.268 5.6531 121.897 3.64179 121.897C1.63049 121.897 0 120.268 0 118.258C0 116.248 1.63049 114.619 3.64179 114.619C5.6531 114.619 7.28358 116.248 7.28358 118.258ZM22.7612 121.897C24.7725 121.897 26.403 120.268 26.403 118.258C26.403 116.248 24.7725 114.619 22.7612 114.619C20.7499 114.619 19.1194 116.248 19.1194 118.258C19.1194 120.268 20.7499 121.897 22.7612 121.897ZM45.5224 118.258C45.5224 120.268 43.8919 121.897 41.8806 121.897C39.8693 121.897 38.2388 120.268 38.2388 118.258C38.2388 116.248 39.8693 114.619 41.8806 114.619C43.8919 114.619 45.5224 116.248 45.5224 118.258ZM60.9999 121.897C63.0113 121.897 64.6417 120.268 64.6417 118.258C64.6417 116.248 63.0113 114.619 60.9999 114.619C58.9886 114.619 57.3582 116.248 57.3582 118.258C57.3582 120.268 58.9886 121.897 60.9999 121.897ZM83.7611 118.258C83.7611 120.268 82.1306 121.897 80.1193 121.897C78.108 121.897 76.4775 120.268 76.4775 118.258C76.4775 116.248 78.108 114.619 80.1193 114.619C82.1306 114.619 83.7611 116.248 83.7611 118.258ZM99.2387 121.897C101.25 121.897 102.881 120.268 102.881 118.258C102.881 116.248 101.25 114.619 99.2387 114.619C97.2274 114.619 95.5969 116.248 95.5969 118.258C95.5969 120.268 97.2274 121.897 99.2387 121.897ZM122 118.258C122 120.268 120.369 121.897 118.358 121.897C116.347 121.897 114.716 120.268 114.716 118.258C114.716 116.248 116.347 114.619 118.358 114.619C120.369 114.619 122 116.248 122 118.258ZM3.64179 141C5.6531 141 7.28358 139.371 7.28358 137.361C7.28358 135.352 5.6531 133.723 3.64179 133.723C1.63049 133.723 0 135.352 0 137.361C0 139.371 1.63049 141 3.64179 141ZM26.403 137.361C26.403 139.371 24.7725 141 22.7612 141C20.7499 141 19.1194 139.371 19.1194 137.361C19.1194 135.352 20.7499 133.723 22.7612 133.723C24.7725 133.723 26.403 135.352 26.403 137.361ZM41.8806 141C43.8919 141 45.5224 139.371 45.5224 137.361C45.5224 135.352 43.8919 133.723 41.8806 133.723C39.8693 133.723 38.2388 135.352 38.2388 137.361C38.2388 139.371 39.8693 141 41.8806 141ZM64.6417 137.361C64.6417 139.371 63.0113 141 60.9999 141C58.9886 141 57.3582 139.371 57.3582 137.361C57.3582 135.352 58.9886 133.723 60.9999 133.723C63.0113 133.723 64.6417 135.352 64.6417 137.361ZM80.1193 141C82.1306 141 83.7611 139.371 83.7611 137.361C83.7611 135.352 82.1306 133.723 80.1193 133.723C78.108 133.723 76.4775 135.352 76.4775 137.361C76.4775 139.371 78.108 141 80.1193 141ZM102.881 137.361C102.881 139.371 101.25 141 99.2387 141C97.2274 141 95.5969 139.371 95.5969 137.361C95.5969 135.352 97.2274 133.723 99.2387 133.723C101.25 133.723 102.881 135.352 102.881 137.361ZM118.358 141C120.369 141 122 139.371 122 137.361C122 135.352 120.369 133.723 118.358 133.723C116.347 133.723 114.716 135.352 114.716 137.361C114.716 139.371 116.347 141 118.358 141Z" transform="translate(0.5 0.5)" id="Pattern" fill="#FFFFFF" fill-opacity="0.1" fill-rule="evenodd" stroke="none" />
</svg>