<svg width="155px" height="203px" viewBox="0 0 155 203" version="1.1" xmlns:xlink="http://www.w3.org/1999/xlink" xmlns="http://www.w3.org/2000/svg">
  <defs>
    <path d="M102.011 4.35707L168.727 42.8752Q169.155 43.1223 169.565 43.3968Q169.976 43.6713 170.368 43.9721Q170.76 44.2729 171.132 44.5987Q171.503 44.9244 171.853 45.2738Q172.202 45.6232 172.528 45.9947Q172.854 46.3662 173.154 46.7582Q173.455 47.1502 173.73 47.561Q174.004 47.9719 174.251 48.3998Q174.498 48.8277 174.717 49.2708Q174.935 49.714 175.124 50.1705Q175.314 50.627 175.472 51.0948Q175.631 51.5627 175.759 52.04Q175.887 52.5173 175.983 53.0019Q176.08 53.4865 176.144 53.9764Q176.209 54.4662 176.241 54.9593Q176.273 55.4523 176.273 55.9464L176.273 132.983Q176.273 133.477 176.241 133.97Q176.209 134.463 176.144 134.953Q176.08 135.443 175.983 135.927Q175.887 136.412 175.759 136.889Q175.631 137.366 175.472 137.834Q175.313 138.302 175.124 138.759Q174.935 139.215 174.717 139.658Q174.498 140.101 174.251 140.529Q174.004 140.957 173.73 141.368Q173.455 141.779 173.154 142.171Q172.854 142.563 172.528 142.934Q172.202 143.306 171.853 143.655Q171.503 144.005 171.132 144.331Q170.76 144.656 170.368 144.957Q169.976 145.258 169.565 145.532Q169.155 145.807 168.727 146.054L102.011 184.572Q101.583 184.819 101.14 185.038Q100.697 185.256 100.241 185.445Q99.7841 185.634 99.3162 185.793Q98.8483 185.952 98.371 186.08Q97.8938 186.208 97.4091 186.304Q96.9245 186.401 96.4347 186.465Q95.9448 186.53 95.4517 186.562Q94.9587 186.594 94.4646 186.594Q93.9705 186.594 93.4774 186.562Q92.9844 186.53 92.4945 186.465Q92.0046 186.401 91.52 186.304Q91.0354 186.208 90.5581 186.08Q90.0809 185.952 89.613 185.793Q89.1451 185.634 88.6886 185.445Q88.2321 185.256 87.789 185.038Q87.3458 184.819 86.9179 184.572L20.2025 146.054Q19.7746 145.807 19.3638 145.532Q18.953 145.258 18.561 144.957Q18.169 144.656 17.7975 144.331Q17.426 144.005 17.0766 143.655Q16.7272 143.306 16.4014 142.934Q16.0756 142.563 15.7748 142.171Q15.4741 141.779 15.1995 141.368Q14.925 140.957 14.678 140.529Q14.4309 140.101 14.2124 139.658Q13.9939 139.215 13.8048 138.759Q13.6157 138.302 13.4569 137.834Q13.298 137.366 13.1701 136.889Q13.0423 136.412 12.9459 135.927Q12.8495 135.443 12.785 134.953Q12.7205 134.463 12.6882 133.97Q12.6559 133.477 12.6559 132.983L12.6559 55.9464Q12.6559 55.4523 12.6882 54.9593Q12.7205 54.4662 12.785 53.9764Q12.8495 53.4865 12.9459 53.0019Q13.0423 52.5173 13.1701 52.04Q13.298 51.5627 13.4569 51.0948Q13.6157 50.627 13.8048 50.1705Q13.9939 49.714 14.2124 49.2708Q14.4309 48.8277 14.678 48.3998Q14.925 47.9719 15.1995 47.561Q15.474 47.1502 15.7748 46.7582Q16.0756 46.3662 16.4014 45.9947Q16.7272 45.6232 17.0766 45.2738Q17.426 44.9244 17.7975 44.5987Q18.1689 44.2729 18.5609 43.9721Q18.9529 43.6713 19.3638 43.3968Q19.7746 43.1223 20.2025 42.8752L86.9179 4.35707Q87.3458 4.11002 87.789 3.89148Q88.2321 3.67295 88.6886 3.48386Q89.1451 3.29477 89.613 3.13595Q90.0809 2.97712 90.5581 2.84924Q91.0354 2.72136 91.52 2.62496Q92.0046 2.52857 92.4945 2.46407Q92.9844 2.39958 93.4774 2.36726Q93.9705 2.33495 94.4646 2.33495Q94.9587 2.33495 95.4517 2.36726Q95.9448 2.39958 96.4347 2.46407Q96.9245 2.52857 97.4091 2.62496Q97.8938 2.72136 98.371 2.84924Q98.8483 2.97712 99.3162 3.13595Q99.7841 3.29477 100.241 3.48386Q100.697 3.67295 101.14 3.89148Q101.583 4.11002 102.011 4.35707L102.011 4.35707Z" id="path_1" />
    <clipPath id="mask_1">
      <use xlink:href="#path_1" />
    </clipPath>
  </defs>
  <g id="Shape-2" transform="translate(1.509521 1.509399)">
    <path d="M102.047 4.35707L168.793 42.8929Q169.221 43.14 169.631 43.4145Q170.042 43.689 170.434 43.9898Q170.826 44.2906 171.198 44.6164Q171.569 44.9422 171.919 45.2915Q172.268 45.6409 172.594 46.0124Q172.92 46.3839 173.22 46.7759Q173.521 47.1679 173.796 47.5787Q174.07 47.9896 174.317 48.4175Q174.564 48.8454 174.783 49.2885Q175.001 49.7317 175.191 50.1882Q175.38 50.6447 175.538 51.1126Q175.697 51.5804 175.825 52.0577Q175.953 52.535 176.049 53.0196Q176.146 53.5042 176.21 53.9941Q176.275 54.4839 176.307 54.977Q176.339 55.47 176.339 55.9641L176.339 133.036Q176.339 133.53 176.307 134.023Q176.275 134.516 176.21 135.006Q176.146 135.496 176.049 135.98Q175.953 136.465 175.825 136.942Q175.697 137.42 175.538 137.887Q175.38 138.355 175.191 138.812Q175.001 139.268 174.783 139.711Q174.564 140.155 174.317 140.583Q174.07 141.01 173.796 141.421Q173.521 141.832 173.22 142.224Q172.92 142.616 172.594 142.988Q172.268 143.359 171.919 143.708Q171.569 144.058 171.198 144.384Q170.826 144.709 170.434 145.01Q170.042 145.311 169.631 145.585Q169.221 145.86 168.793 146.107L102.047 184.643Q101.619 184.89 101.176 185.109Q100.732 185.327 100.276 185.516Q99.8195 185.705 99.3516 185.864Q98.8837 186.023 98.4064 186.151Q97.9292 186.279 97.4446 186.375Q96.96 186.471 96.4701 186.536Q95.9802 186.6 95.4872 186.633Q94.9941 186.665 94.5 186.665Q94.0059 186.665 93.5129 186.633Q93.0198 186.6 92.5299 186.536Q92.0401 186.471 91.5554 186.375Q91.0708 186.279 90.5936 186.151Q90.1163 186.023 89.6484 185.864Q89.1805 185.705 88.724 185.516Q88.2675 185.327 87.8244 185.109Q87.3812 184.89 86.9533 184.643L20.2073 146.107Q19.7794 145.86 19.3685 145.585Q18.9577 145.311 18.5657 145.01Q18.1737 144.709 17.8022 144.384Q17.4307 144.058 17.0813 143.708Q16.732 143.359 16.4062 142.988Q16.0804 142.616 15.7796 142.224Q15.4788 141.832 15.2043 141.421Q14.9298 141.01 14.6827 140.583Q14.4357 140.155 14.2171 139.711Q13.9986 139.268 13.8095 138.812Q13.6204 138.355 13.4616 137.887Q13.3028 137.42 13.1749 136.942Q13.047 136.465 12.9506 135.98Q12.8542 135.496 12.7897 135.006Q12.7252 134.516 12.6929 134.023Q12.6606 133.53 12.6606 133.036L12.6606 55.9641Q12.6606 55.47 12.6929 54.977Q12.7252 54.4839 12.7897 53.9941Q12.8542 53.5042 12.9506 53.0196Q13.047 52.535 13.1749 52.0577Q13.3028 51.5804 13.4616 51.1126Q13.6204 50.6447 13.8095 50.1882Q13.9986 49.7317 14.2171 49.2885Q14.4357 48.8454 14.6827 48.4175Q14.9298 47.9896 15.2043 47.5787Q15.4788 47.1679 15.7796 46.7759Q16.0804 46.3839 16.4062 46.0124Q16.732 45.6409 17.0813 45.2915Q17.4307 44.9422 17.8022 44.6164Q18.1737 44.2906 18.5657 43.9898Q18.9577 43.689 19.3685 43.4145Q19.7794 43.14 20.2073 42.8929L86.9533 4.35707Q87.3812 4.11002 87.8244 3.89148Q88.2675 3.67295 88.724 3.48386Q89.1805 3.29477 89.6484 3.13595Q90.1163 2.97712 90.5936 2.84924Q91.0708 2.72136 91.5554 2.62496Q92.0401 2.52857 92.5299 2.46407Q93.0198 2.39958 93.5129 2.36726Q94.0059 2.33495 94.5 2.33495Q94.9941 2.33495 95.4872 2.36726Q95.9802 2.39958 96.4701 2.46407Q96.96 2.52857 97.4446 2.62496Q97.9292 2.72136 98.4064 2.84924Q98.8837 2.97712 99.3516 3.13595Q99.8195 3.29477 100.276 3.48386Q100.732 3.67295 101.176 3.89148Q101.619 4.11002 102.047 4.35707Z" transform="translate(11 10)" id="Polygon" fill="#1565D8" fill-opacity="0.0936569944" stroke="none" />
    <g id="Shape" opacity="0.2">
      <path d="M102.011 4.35707L168.727 42.8752Q169.155 43.1223 169.565 43.3968Q169.976 43.6713 170.368 43.9721Q170.76 44.2729 171.132 44.5987Q171.503 44.9244 171.853 45.2738Q172.202 45.6232 172.528 45.9947Q172.854 46.3662 173.154 46.7582Q173.455 47.1502 173.73 47.561Q174.004 47.9719 174.251 48.3998Q174.498 48.8277 174.717 49.2708Q174.935 49.714 175.124 50.1705Q175.314 50.627 175.472 51.0948Q175.631 51.5627 175.759 52.04Q175.887 52.5173 175.983 53.0019Q176.08 53.4865 176.144 53.9764Q176.209 54.4662 176.241 54.9593Q176.273 55.4523 176.273 55.9464L176.273 132.983Q176.273 133.477 176.241 133.97Q176.209 134.463 176.144 134.953Q176.08 135.443 175.983 135.927Q175.887 136.412 175.759 136.889Q175.631 137.366 175.472 137.834Q175.313 138.302 175.124 138.759Q174.935 139.215 174.717 139.658Q174.498 140.101 174.251 140.529Q174.004 140.957 173.73 141.368Q173.455 141.779 173.154 142.171Q172.854 142.563 172.528 142.934Q172.202 143.306 171.853 143.655Q171.503 144.005 171.132 144.331Q170.76 144.656 170.368 144.957Q169.976 145.258 169.565 145.532Q169.155 145.807 168.727 146.054L102.011 184.572Q101.583 184.819 101.14 185.038Q100.697 185.256 100.241 185.445Q99.7841 185.634 99.3162 185.793Q98.8483 185.952 98.371 186.08Q97.8938 186.208 97.4091 186.304Q96.9245 186.401 96.4347 186.465Q95.9448 186.53 95.4517 186.562Q94.9587 186.594 94.4646 186.594Q93.9705 186.594 93.4774 186.562Q92.9844 186.53 92.4945 186.465Q92.0046 186.401 91.52 186.304Q91.0354 186.208 90.5581 186.08Q90.0809 185.952 89.613 185.793Q89.1451 185.634 88.6886 185.445Q88.2321 185.256 87.789 185.038Q87.3458 184.819 86.9179 184.572L20.2025 146.054Q19.7746 145.807 19.3638 145.532Q18.953 145.258 18.561 144.957Q18.169 144.656 17.7975 144.331Q17.426 144.005 17.0766 143.655Q16.7272 143.306 16.4014 142.934Q16.0756 142.563 15.7748 142.171Q15.4741 141.779 15.1995 141.368Q14.925 140.957 14.678 140.529Q14.4309 140.101 14.2124 139.658Q13.9939 139.215 13.8048 138.759Q13.6157 138.302 13.4569 137.834Q13.298 137.366 13.1701 136.889Q13.0423 136.412 12.9459 135.927Q12.8495 135.443 12.785 134.953Q12.7205 134.463 12.6882 133.97Q12.6559 133.477 12.6559 132.983L12.6559 55.9464Q12.6559 55.4523 12.6882 54.9593Q12.7205 54.4662 12.785 53.9764Q12.8495 53.4865 12.9459 53.0019Q13.0423 52.5173 13.1701 52.04Q13.298 51.5627 13.4569 51.0948Q13.6157 50.627 13.8048 50.1705Q13.9939 49.714 14.2124 49.2708Q14.4309 48.8277 14.678 48.3998Q14.925 47.9719 15.1995 47.561Q15.474 47.1502 15.7748 46.7582Q16.0756 46.3662 16.4014 45.9947Q16.7272 45.6232 17.0766 45.2738Q17.426 44.9244 17.7975 44.5987Q18.1689 44.2729 18.5609 43.9721Q18.9529 43.6713 19.3638 43.3968Q19.7746 43.1223 20.2025 42.8752L86.9179 4.35707Q87.3458 4.11002 87.789 3.89148Q88.2321 3.67295 88.6886 3.48386Q89.1451 3.29477 89.613 3.13595Q90.0809 2.97712 90.5581 2.84924Q91.0354 2.72136 91.52 2.62496Q92.0046 2.52857 92.4945 2.46407Q92.9844 2.39958 93.4774 2.36726Q93.9705 2.33495 94.4646 2.33495Q94.9587 2.33495 95.4517 2.36726Q95.9448 2.39958 96.4347 2.46407Q96.9245 2.52857 97.4091 2.62496Q97.8938 2.72136 98.371 2.84924Q98.8483 2.97712 99.3162 3.13595Q99.7841 3.29477 100.241 3.48386Q100.697 3.67295 101.14 3.89148Q101.583 4.11002 102.011 4.35707L102.011 4.35707Z" id="Mask" fill="none" stroke="none" />
      <g clip-path="url(#mask_1)">
        <path d="M180.369 0.735222L1.57668 384.157L0 383.421L178.792 5.72205e-06L180.369 0.735222ZM10.275 384.157L189.067 0.735222L187.491 5.72205e-06L8.69835 383.421L10.275 384.157ZM197.766 0.735222L18.9734 384.157L17.3967 383.421L196.189 5.72205e-06L197.766 0.735222ZM27.6717 384.157L206.464 0.735222L204.887 5.72205e-06L26.0951 383.421L27.6717 384.157ZM215.162 0.735222L36.3701 384.157L34.7934 383.421L213.586 5.72205e-06L215.162 0.735222ZM45.0685 384.157L223.861 0.735222L222.284 5.72205e-06L43.4918 383.421L45.0685 384.157ZM232.559 0.735222L53.7668 384.157L52.1901 383.421L230.983 5.72205e-06L232.559 0.735222ZM62.4651 384.157L241.258 0.735222L239.681 5.72205e-06L60.8885 383.421L62.4651 384.157ZM249.956 0.735222L71.1635 384.157L69.5868 383.421L248.379 5.72205e-06L249.956 0.735222ZM79.8619 384.157L258.654 0.735222L257.078 5.72205e-06L78.2852 383.421L79.8619 384.157ZM267.353 0.735222L88.5602 384.157L86.9835 383.421L265.776 5.72205e-06L267.353 0.735222ZM97.2586 384.157L276.051 0.735222L274.474 5.72205e-06L95.6819 383.421L97.2586 384.157ZM284.749 0.735222L105.957 384.157L104.38 383.421L283.173 5.72205e-06L284.749 0.735222ZM114.655 384.157L293.448 0.735222L291.871 5.72205e-06L113.079 383.421L114.655 384.157ZM302.146 0.735222L123.354 384.157L121.777 383.421L300.569 5.72205e-06L302.146 0.735222ZM132.052 384.157L310.844 0.735222L309.268 5.72205e-06L130.475 383.421L132.052 384.157ZM319.543 0.735222L140.75 384.157L139.174 383.421L317.966 5.72205e-06L319.543 0.735222ZM149.449 384.157L328.241 0.735222L326.664 5.72205e-06L147.872 383.421L149.449 384.157ZM336.939 0.735222L158.147 384.157L156.57 383.421L335.363 5.72205e-06L336.939 0.735222ZM166.845 384.157L345.638 0.735222L344.061 5.72205e-06L165.269 383.421L166.845 384.157ZM354.336 0.735222L175.544 384.157L173.967 383.421L352.759 5.72205e-06L354.336 0.735222ZM184.242 384.157L363.035 0.735222L361.458 5.72205e-06L182.665 383.421L184.242 384.157ZM371.733 0.735222L192.94 384.157L191.364 383.421L370.156 5.72205e-06L371.733 0.735222ZM201.639 384.157L380.431 0.735222L378.855 5.72205e-06L200.062 383.421L201.639 384.157ZM389.13 0.735222L210.337 384.157L208.761 383.421L387.553 5.72205e-06L389.13 0.735222ZM219.036 384.157L397.828 0.735222L396.251 5.72205e-06L217.459 383.421L219.036 384.157Z" transform="matrix(-1 0 0 1 305.8824 -62.97638)" id="Shape" fill="#1565D8" fill-rule="evenodd" stroke="none" />
      </g>
    </g>
  </g>
</svg>