<svg xmlns="http://www.w3.org/2000/svg" xmlns:xlink="http://www.w3.org/1999/xlink" viewBox="0 0 182.65 180.78"><defs><style>.cls-1,.cls-10,.cls-11,.cls-12,.cls-13,.cls-14,.cls-15,.cls-16,.cls-17,.cls-18,.cls-19,.cls-2,.cls-3,.cls-4,.cls-5,.cls-6,.cls-7,.cls-8,.cls-9{fill-rule:evenodd;}.cls-1{opacity:0.5;fill:url(#linear-gradient);}.cls-2{fill:url(#linear-gradient-2);}.cls-3,.cls-5{fill:#01052d;}.cls-12,.cls-3,.cls-4{opacity:0.3;}.cls-4{fill:#f6dcfd;}.cls-5{opacity:0.2;}.cls-6{fill:url(#linear-gradient-3);}.cls-7{fill:url(#linear-gradient-4);}.cls-8{fill:#300c50;}.cls-13,.cls-17,.cls-18,.cls-8{opacity:0.25;}.cls-9{fill:url(#linear-gradient-5);}.cls-10{fill:url(#linear-gradient-6);}.cls-11{fill:url(#linear-gradient-7);}.cls-12,.cls-16{fill:#fef163;}.cls-13{fill:#740107;}.cls-14{fill:url(#linear-gradient-8);}.cls-15,.cls-17{fill:#f9d92e;}.cls-15,.cls-16{opacity:0.4;}.cls-18{fill:#c40015;}.cls-19{fill:url(#linear-gradient-9);}</style><linearGradient id="linear-gradient" x1="160.25" y1="138.95" x2="-13.79" y2="21.64" gradientTransform="translate(-21.66 35.69) rotate(-15.99)" gradientUnits="userSpaceOnUse"><stop offset="0" stop-color="#e60040"/><stop offset="1" stop-color="#f9d92e"/></linearGradient><linearGradient id="linear-gradient-2" x1="204.95" y1="101.25" x2="130.19" y2="102.13" gradientTransform="translate(-21.66 35.69) rotate(-15.99)" gradientUnits="userSpaceOnUse"><stop offset="0" stop-color="#c835f8"/><stop offset="1" stop-color="#e60040"/></linearGradient><linearGradient id="linear-gradient-3" x1="96.32" y1="87.06" x2="29.34" y2="158.37" gradientTransform="translate(-21.66 35.69) rotate(-15.99)" gradientUnits="userSpaceOnUse"><stop offset="0" stop-color="#9027e2"/><stop offset="1" stop-color="#15b0f8"/></linearGradient><linearGradient id="linear-gradient-4" x1="107.43" y1="97.5" x2="40.46" y2="168.81" xlink:href="#linear-gradient-3"/><linearGradient id="linear-gradient-5" x1="187.42" y1="139.52" x2="77.11" y2="-20.44" xlink:href="#linear-gradient"/><linearGradient id="linear-gradient-6" x1="192.38" y1="136.1" x2="82.06" y2="-23.85" xlink:href="#linear-gradient"/><linearGradient id="linear-gradient-7" x1="161.48" y1="157.41" x2="51.17" y2="-2.55" xlink:href="#linear-gradient"/><linearGradient id="linear-gradient-8" x1="150.69" y1="164.85" x2="40.37" y2="4.9" xlink:href="#linear-gradient"/><linearGradient id="linear-gradient-9" x1="138.37" y1="173.34" x2="28.06" y2="13.39" xlink:href="#linear-gradient"/></defs><g id="Layer_2" data-name="Layer 2"><g id="Icon"><path class="cls-1" d="M0,53.44C8.25,79.08,20,88.33,45.41,98.89c12.79,5.31,1.47,10.39-8.83,5,19.18,22.13,44,.26,67.1,5.31,9.66,2.11,15.07,10.27,12.23,23.05,12.75-18.46,8.26-36.07-2.32-47.41C86.94,56.27,26.73,82.66,0,53.44Z"/><path class="cls-2" d="M137,74.8a47.09,47.09,0,0,1,11.86,4.5c-6.22.82-12.71.6-25.33-.68l-.22,0c6.07,6.14,10.73,19.78,3.22,42.75,10.15-12.69,36.39-26.56,56.14-17C179.31,85.31,159.21,72.94,137,74.8Z"/><path class="cls-3" d="M123.29,78.65c6.07,6.14,10.73,19.78,3.22,42.75a44.9,44.9,0,0,1,6.28-6.3c6.46-8.82,9.28-18.21,8.91-28a37.19,37.19,0,0,0-1-7.36c-4.39,0-9.71-.41-17.17-1.16Z"/><path class="cls-4" d="M137,74.8c18.75,1.92,27.83,11.14,27.83,11.14-7.36-2.18-18.14-1.19-18.14-1.19,27.06,2.81,36,19.65,36,19.65C179.31,85.31,159.21,72.94,137,74.8Z"/><path class="cls-5" d="M130,93.52a20.33,20.33,0,0,0,3.52.28,32.57,32.57,0,0,1-3.71-1.51C129.84,92.69,129.9,93.1,130,93.52Z"/><path class="cls-5" d="M123.37,78.74l.14-.12-.23,0Z"/><path class="cls-5" d="M139.72,92.51c6.06-.87,12.49,1.32,12.49,1.32-6.45-.26-14.14,4.26-21.86,3.89.27,6.41-.76,14.26-3.84,23.68h0c10.14-12.7,36.38-26.57,56.14-17C174.44,93.6,153.72,86.43,139.72,92.51Z"/><path class="cls-6" d="M60.14,171.74c-1.11-7.45-1.42-17.11,3.08-26.06C52.93,156.28,57.43,167.18,60.14,171.74Z"/><path class="cls-7" d="M96.33,100.82c-17.69,6.58-28.76,24.32-31.72,39.46,5.2-9.67,19.6-18.27,12-6.71-11.22,17.08-12.26,34.28-5.95,47.21,3.54-15,14.72-28.22,21.31-34.49a52.94,52.94,0,0,0-5.51,16.52c6.11-12.84,15.09-21.65,29.43-30.6,10.27-10.81,7.07-21.38,1.81-29.35C112.36,99.18,104.42,98,96.33,100.82Z"/><path class="cls-8" d="M91.68,133.88c4.61-5.33,9.06-10.09,20.4-10.69C104.43,119.6,95.15,125.87,91.68,133.88Z"/><path class="cls-8" d="M96.33,100.82c-17.69,6.58-28.76,24.32-31.72,39.46,5.2-9.67,19.6-18.27,12-6.71-11.22,17.08-12.26,34.28-5.95,47.21-4.35-23.85,14.53-50.43,14.53-50.43a66,66,0,0,0-1.95,11.51c8.21-21.16,27.24-29.87,33.2-19.13,2.25,4.07-.55,9.48-.55,9.48,10.27-10.81,7.07-21.38,1.81-29.35C112.36,99.18,104.42,98,96.33,100.82Z"/><path class="cls-3" d="M91.44,103a49.27,49.27,0,0,0-15.8,13.43c13.17-4.22,29.39-6.08,37.82-1.86,10.83,5.42,2.45,17.64,2.45,17.64,9.26-9.75,7.57-19.3,3.29-26.93C110.84,102,98.86,102.4,91.44,103Z"/><path class="cls-9" d="M61.75.75c-2.21,12.13,9.47,20.86,14.34,24C69.33,17.33,63.91,9.76,61.75.75Z"/><path class="cls-10" d="M104.23,35C129,51.18,134.12,63.33,134.12,63.33,133.26,48.16,116.05,39.91,104.23,35Z"/><path class="cls-11" d="M92.44,42.82S49.19,27.45,41.21,0c-4.4,33.83,9,53.38,40.24,74.3,21.74,14.57,50.25,34,34.46,57.91,17.39-14.93,23.89-30.72,21.73-46.64C133.71,56.74,97.15,41.42,80.8,27,80.8,27,85.06,36.31,92.44,42.82Z"/><path class="cls-12" d="M80.8,27C90,35.78,102.21,43.62,112,51.25c8.31,6.45,16.6,14.28,21.08,24a37.09,37.09,0,0,1,3.12,10.54c2.16,15.88-4.78,31.06-15.36,41.88,13.66-13.57,18.72-27.77,16.78-42.07-3.92-28.78-40.38-44.11-56.76-58.48C80.86,27.09,80.83,27.07,80.8,27Z"/><path class="cls-13" d="M72.77,38.49C81.24,46.05,97.7,49.83,97.7,49.83s-6.57-3.21-10.5-4.56S72.77,38.49,72.77,38.49Z"/><path class="cls-13" d="M113,62.66C97.38,50.37,68.7,47,58.47,30.76a59.15,59.15,0,0,0,4.33,9.55S42.94,30.67,41.21,0c-4.4,33.83,9,53.38,40.24,74.3,21.74,14.57,49.43,33,34.46,57.91,9.18-7.89,15.33-16,18.77-24.28,4.66-11.11.38-38.83-27.71-53.84C107,54.09,111.19,58.67,113,62.66Z"/><path class="cls-13" d="M45.88,38c6.34,13.49,18.2,24.71,35.57,36.35,15.44,10.34,31.44,22.07,35.79,37.33,3.58,5.27,3.56,12.47-1.33,20.58h0a81.52,81.52,0,0,0,11-11.25A34.65,34.65,0,0,0,130,86.46C117,58,71.66,56.15,45.88,38Z"/><path class="cls-14" d="M24.43,26C25.74,53,34.66,64.92,56.49,81.73c11,8.44-1.28,10.41-9.82,2.49,12.77,26.35,42.41,11.68,63.41,22.56,8.79,4.55,11.89,13.83,5.83,25.43C133,117.7,133.26,99.52,126,85.83,107.66,51.35,42.66,61.2,24.43,26Z"/><path class="cls-15" d="M24.43,26c9,22.2,37.37,30.44,37.37,30.44-2.84,0-11.39-2.06-11.39-2.06,13.81,8.61,32.58,7.2,50.77,21C96.62,74.83,85,71.65,85,71.65c11.18,6.85,29.22,11.41,37,21.8,6.23,8.29,7.25,19.53.66,31.75,10.2-13,9.41-27.81,3.27-39.37C107.66,51.35,42.66,61.2,24.43,26Z"/><path class="cls-16" d="M24.43,26C31.89,44.44,57,52.66,75.82,58.28c20.15,6,39.87,12,48.55,28.4a34.72,34.72,0,0,1,3.92,21.75A49.5,49.5,0,0,1,125.44,119a40.89,40.89,0,0,1-2.73,6.2c10.2-13,9.41-27.81,3.27-39.37C107.66,51.35,42.66,61.2,24.43,26Z"/><path class="cls-17" d="M47.47,85.72c-.27-.49-.54-1-.8-1.5C46.92,84.74,47.19,85.24,47.47,85.72Z"/><path class="cls-17" d="M105.5,102.91c-5.84-1.91-12-2.45-18.12-2.77-13-.68-31.6.15-39.91-14.42,13.16,24.25,42,10.39,62.61,21.06,8.79,4.55,11.89,13.83,5.83,25.43l.09-.09c6.51-9.54,5.72-21.36-5.08-27A36.64,36.64,0,0,0,105.5,102.91Z"/><path class="cls-18" d="M64.84,66.85c3.62,2.72,4.85,6.15,8.79,10.5a15.85,15.85,0,0,0,8.57,5c-4.06-2.53-6.82-6.06-9.81-9.47A34.44,34.44,0,0,0,64.84,66.85Z"/><path class="cls-18" d="M86.84,84.83a20.3,20.3,0,0,0,5.42,7.5C65.49,84.4,65.47,68.06,46.61,58c0,0,6.69,8,9,15,0,0-24.16-15-31.18-47a23.81,23.81,0,0,1,.18,2.9c1.8,24.89,10.85,36.6,31.88,52.79,11,8.44-1.28,10.41-9.82,2.49,7.87,16.12,27.23,15.21,40.71,15.92,6.09.32,12.28.86,18.12,2.77a36.64,36.64,0,0,1,5.42,2.25c10.8,5.6,11.59,17.42,5.08,27,7.83-7.94,11.58-23.84,1.47-31.83C109.41,93.92,95.06,90.72,86.84,84.83Z"/><path class="cls-19" d="M29.93,64.08C21.78,57.33,17.2,46.41,14.38,37.39,14.45,44.33,16.22,59.56,29.93,64.08Z"/></g></g></svg>