<?xml version="1.0" encoding="UTF-8"?>
<svg width="32px" height="34px" viewBox="0 0 32 34" version="1.1" xmlns="http://www.w3.org/2000/svg" xmlns:xlink="http://www.w3.org/1999/xlink">
    <!-- Generator: Sketch 64 (93537) - https://sketch.com -->
    <title>Icon_CS</title>
    <desc>Created with Sketch.</desc>
    <g id="Other-pages" stroke="none" stroke-width="1" fill="none" fill-rule="evenodd">
        <g id="8---Pricing" transform="translate(-182.000000, -1760.000000)">
            <g id="Features" transform="translate(150.000000, 1375.000000)">
                <g id="Title" transform="translate(16.000000, 0.000000)">
                    <g id="Item" transform="translate(0.000000, 370.000000)">
                        <g id="Icon--3">
                            <g id="Icon_CS" transform="translate(12.000000, 12.000000)">
                                <polygon id="Path" points="0 0 40 0 40 40 0 40"></polygon>
                                <path d="M10.5337274,14.190517 C17.6214811,15.1907653 23.1652449,12.6073778 27.0258072,6.47505953 C27.0451577,6.44432219 27.0628562,6.41280254 27.0789224,6.38063826 C28.5646306,8.05243919 29.4670607,10.254166 29.4670607,12.6666667 L29.4670607,16.1333333 C29.4670607,19.6369692 27.5459099,22.7867327 24.5677052,24.4275872 C24.1796685,24.1580091 23.7082868,24 23.2,24 C21.8745166,24 20.8,25.0745166 20.8,26.4 C20.8,27.7254834 21.8745166,28.8 23.2,28.8 C23.8712875,28.8 24.4782048,28.5243985 24.9137743,28.0801729 C24.2647669,30.1189585 22.310283,31.6 20,31.6 C17.1618604,31.6 14.8606809,29.3648618 14.8571469,26.6063632 L15.6160051,24.5257708 C12.5337768,22.9146405 10.5337274,19.7081896 10.5337274,16.1333333 L10.5337274,14.190517 L10.5337274,14.190517 Z M10.5524876,12.0658098 C10.8624223,7.11746698 14.9739215,3.2 20.0003941,3.2 C22.1189151,3.2 24.0749009,3.89589585 25.6522322,5.07156821 C25.6037918,5.12141816 25.5592495,5.17789859 25.5196403,5.24081589 C22.0451684,10.7598481 17.1343561,13.0258481 10.6455323,12.0741338 C10.6143266,12.0695569 10.5832842,12.0668065 10.5524876,12.0658098 L10.5524876,12.0658098 Z M12.8810112,27.6535544 C13.4036459,31.0197008 16.3918829,33.6 20,33.6 C23.6088573,33.6 26.5975802,31.0186419 27.1193102,27.6514825 L30.9555629,28.4250205 C32.4794635,28.7223103 33.6936645,29.8745972 34.0702322,31.3808678 L35.1765081,35.8059715 C35.3027374,36.3108889 34.920851,36.8 34.4003941,36.8 L5.60039408,36.8 C5.07993716,36.8 4.69805074,36.3108889 4.82428008,35.8059715 L5.92912432,31.3865946 C6.30661271,29.876641 7.52569561,28.7227576 9.04640006,28.430271 L12.8810112,27.6535544 L12.8810112,27.6535544 Z" id="Path" fill="#264eee"></path>
                                <path d="M23.2,27.2 C23.6418278,27.2 24,26.8418278 24,26.4 C24,25.9581722 23.6418278,25.6 23.2,25.6 C22.7581722,25.6 22.4,25.9581722 22.4,26.4 C22.4,26.8418278 22.7581722,27.2 23.2,27.2 Z" id="Path" fill="#264eee" opacity="0.3"></path>
                                <path d="M30.9707283,11.2 L31.2,11.2 C32.5254834,11.2 33.6,12.2745166 33.6,13.6 L33.6,16.8 C33.6,18.1254834 32.5254834,19.2 31.2,19.2 L30.63469,19.2 C30.9176178,18.2182221 31.0670607,17.1877324 31.0670607,16.1333333 L31.0670607,12.6666667 C31.0670607,12.1694371 31.0342684,11.6798667 30.9707283,11.2 Z" id="Path" fill="#264eee" opacity="0.3"></path>
                                <path d="M9.36609818,19.2 L8.8,19.2 C7.4745166,19.2 6.4,18.1254834 6.4,16.8 L6.4,13.6 C6.4,12.2745166 7.4745166,11.2 8.8,11.2 L9.03005983,11.2 C8.96651978,11.6798667 8.93372742,12.1694371 8.93372742,12.6666667 L8.93372742,16.1333333 C8.93372742,17.1877324 9.08317036,18.2182221 9.36609818,19.2 L9.36609818,19.2 Z" id="Path" fill="#264eee" opacity="0.3"></path>
                            </g>
                        </g>
                    </g>
                </g>
            </g>
        </g>
    </g>
</svg>