<?xml version="1.0" encoding="UTF-8"?>
<svg width="34px" height="34px" viewBox="0 0 34 34" version="1.1" xmlns="http://www.w3.org/2000/svg" xmlns:xlink="http://www.w3.org/1999/xlink">
    <!-- Generator: Sketch 64 (93537) - https://sketch.com -->
    <title>Icon_Partners</title>
    <desc>Created with Sketch.</desc>
    <g id="Other-pages" stroke="none" stroke-width="1" fill="none" fill-rule="evenodd">
        <g id="8---Pricing" transform="translate(-766.000000, -1760.000000)">
            <g id="Features" transform="translate(150.000000, 1375.000000)">
                <g id="Title" transform="translate(16.000000, 0.000000)">
                    <g id="Item" transform="translate(585.000000, 370.000000)">
                        <g id="Icon">
                            <g id="Icon_Partners" transform="translate(12.000000, 12.000000)">
                                <rect id="Base" x="0" y="0" width="40" height="40"></rect>
                                <path d="M21.6666667,11.6666667 C21.6666667,12.5871412 20.9204746,13.3333333 20,13.3333333 C19.0795254,13.3333333 18.3333333,12.5871412 18.3333333,11.6666667 L18.3333333,5 C18.3333333,4.07952542 19.0795254,3.33333333 20,3.33333333 C20.9204746,3.33333333 21.6666667,4.07952542 21.6666667,5 L21.6666667,11.6666667 Z" id="Path" fill="#B4CCEF" fill-rule="nonzero"></path>
                                <path d="M27.1427051,36.6666667 L24.8775151,29.4577845 C24.3676516,27.8351631 23.1768654,26.556557 21.6539374,26.0048329 C18.9506473,25.0254888 16.0261339,26.5812782 15.1222721,29.4577845 L12.8570821,36.6666667 L5.73226098,36.6666667 C4.41017913,36.6666667 3.33333333,35.6193305 3.33333333,34.3210646 C3.33333333,33.9255734 3.4355983,33.5366449 3.63043935,33.1903715 L15.0815221,12.8393995 C16.5701053,10.1938753 19.9739296,9.22518517 22.6880393,10.6698062 C23.6284039,11.1703278 24.4023729,11.9230871 24.9179635,12.8393995 L36.3690462,33.1903715 C37.0104665,34.3303098 36.580158,35.7606106 35.4142176,36.3811979 C35.0621666,36.5685817 34.6678182,36.6666667 34.2672246,36.6666667 L27.1427051,36.6666667 L27.1427051,36.6666667 Z" id="Path" fill="#264eee"></path>
                                <path d="M23.3948979,30.0515402 C23.033446,28.9371997 22.1968065,28.066947 21.1371495,27.6950591 C19.2715628,27.0403292 17.2426815,28.0859108 16.6051021,30.0515402 L15,35 L25,35 L23.3948979,30.0515402 Z" id="Path" fill="#B4CCEF" fill-rule="nonzero"></path>
                            </g>
                        </g>
                    </g>
                </g>
            </g>
        </g>
    </g>
</svg>