<?xml version="1.0" encoding="UTF-8"?>
<svg width="34px" height="33px" viewBox="0 0 34 33" version="1.1" xmlns="http://www.w3.org/2000/svg" xmlns:xlink="http://www.w3.org/1999/xlink">
    <title>Icon_Syntax</title>
    <desc>Created with Sketch.</desc>
    <defs>
        <linearGradient x1="50%" y1="0%" x2="50%" y2="100%" id="linearGradient-1">
            <stop stop-color="#F8FBFF" offset="0%"></stop>
            <stop stop-color="#FAFBFB" stop-opacity="0" offset="100%"></stop>
        </linearGradient>
        <rect id="path-2" x="0" y="0" width="360" height="317" rx="16"></rect>
        <filter x="-9.7%" y="-7.9%" width="119.4%" height="122.1%" filterUnits="objectBoundingBox" id="filter-3">
            <feOffset dx="0" dy="10" in="SourceAlpha" result="shadowOffsetOuter1"></feOffset>
            <feGaussianBlur stdDeviation="10" in="shadowOffsetOuter1" result="shadowBlurOuter1"></feGaussianBlur>
            <feComposite in="shadowBlurOuter1" in2="SourceAlpha" operator="out" result="shadowBlurOuter1"></feComposite>
            <feColorMatrix values="0 0 0 0 0   0 0 0 0 0   0 0 0 0 0  0 0 0 0.02 0" type="matrix" in="shadowBlurOuter1"></feColorMatrix>
        </filter>
    </defs>
    <g id="Other-pages" stroke="none" stroke-width="1" fill="none" fill-rule="evenodd">
        <g id="Documentation" transform="translate(-149.000000, -3405.000000)">
            <g id="Features" transform="translate(-36.000000, 1963.000000)">
                <rect id="Base" fill="url(#linearGradient-1)" x="0" y="175" width="1440" height="1532"></rect>
                <g id="Item" transform="translate(150.000000, 1390.000000)">
                    <g id="Base">
                        <use fill="black" fill-opacity="1" filter="url(#filter-3)" xlink:href="#path-2"></use>
                        <rect stroke="#E5EAF4" stroke-width="1" stroke-linejoin="square" fill="#FFFFFF" fill-rule="evenodd" x="0.5" y="0.5" width="359" height="316" rx="16"></rect>
                    </g>
                    <g id="Icon_Syntax" transform="translate(32.000000, 48.000000)">
                        <rect id="Path" x="0" y="0" width="40" height="40"></rect>
                        <path d="M36.5772207,32 L3.42400593,32 L6.07698814,24.0410534 C6.08157066,24.0273058 6.08626937,24.013621 6.09108295,24 L33.9101441,24 C33.9149572,24.013621 33.919656,24.0273058 33.9242385,24.0410534 L36.5772207,32 Z M16.8,27.2 C16.3581722,27.2 16,27.5581722 16,28 C16,28.4418278 16.3581722,28.8 16.8,28.8 L23.2,28.8 C23.6418278,28.8 24,28.4418278 24,28 C24,27.5581722 23.6418278,27.2 23.2,27.2 L16.8,27.2 Z M6.4,22.4 L6.4,7.2 C6.4,5.8745166 7.4745166,4.8 8.8,4.8 L31.2,4.8 C32.5254834,4.8 33.6,5.8745166 33.6,7.2 L33.6,22.4 L6.4,22.4 Z M15.5608524,9.65680975 L14.2129589,8.67652359 L10.5231579,13.75 L14.2129589,18.8234764 L15.5608524,17.8431903 L12.5839867,13.75 L15.5608524,9.65680975 Z M23.8564912,9.65680975 L26.8333568,13.75 L23.8564912,17.8431903 L25.2043847,18.8234764 L28.8941857,13.75 L25.2043847,8.67652359 L23.8564912,9.65680975 Z M20.7483765,7.28528112 L17.4150432,19.7852811 L19.0254347,20.2147189 L22.3587681,7.71471888 L20.7483765,7.28528112 Z" id="Shape" fill="#1565D8"></path>
                        <path d="M36.7199855,33.6 C36.3493692,35.4257923 34.7351663,36.8 32.8,36.8 L7.2,36.8 C5.26483367,36.8 3.65063076,35.4257923 3.28001449,33.6 L36.7199855,33.6 Z" id="Path" fill="#1565D8" opacity="0.3"></path>
                    </g>
                </g>
            </g>
        </g>
    </g>
</svg>