<svg width="138" height="46" viewBox="0 0 96 32" fill="none" xmlns="http://www.w3.org/2000/svg">
<path fill-rule="evenodd" clip-rule="evenodd" d="M27.4149 22.238L27.4149 22.2381C27.8448 23.3333 27.9403 24.3809 27.797 25.4285C27.4627 27.619 26.0298 29.5238 23.9284 30.3809C23.1642 30.7143 22.3522 30.8571 21.4925 30.8571C21.2537 30.8571 20.9672 30.8571 20.7284 30.8095C19.7254 30.7143 18.7224 30.3809 17.7194 29.8095C16.5254 29.1428 15.3313 28.1428 13.994 26.7143C12.6567 28.1428 11.5104 29.1428 10.2687 29.8095C9.26567 30.3809 8.26268 30.6666 7.2597 30.8095C7.14029 30.8095 7.00895 30.8214 6.87761 30.8333C6.74626 30.8452 6.61492 30.8571 6.49552 30.8571C5.63581 30.8571 4.82387 30.7143 4.0597 30.3809C2.00596 29.5238 0.477606 27.6666 0.143278 25.4285C-5.99027e-06 24.3333 0.143278 23.2857 0.525367 22.2381C0.668648 21.8095 0.811928 21.4762 0.955209 21.1429L0.955218 21.1428C1.19402 20.619 1.43283 20.0952 1.62387 19.619L1.67164 19.5714C3.77313 15.0952 5.97014 10.5714 8.26268 6.09521L8.3582 5.90474C8.59701 5.47617 8.83582 4.99998 9.07462 4.52379C9.1389 4.42308 9.20318 4.32061 9.26814 4.21705L9.26827 4.21685C9.54113 3.78186 9.82598 3.32777 10.1731 2.90474C11.1761 1.76188 12.5134 1.09521 13.994 1.09521C15.4269 1.09521 16.8119 1.76188 17.7672 2.95236C18.2448 3.47617 18.5791 4.0476 18.8657 4.57141C19.1045 5.0476 19.3433 5.52379 19.5821 5.95236L19.6776 6.14283C22.0179 10.619 24.2149 15.1428 26.2687 19.619H26.3164C26.5074 20.0952 26.7462 20.6189 26.985 21.1427L26.9851 21.1428C27.1283 21.4761 27.2716 21.857 27.4149 22.2379L27.4149 22.238L27.4149 22.238ZM50.4836 8.57141C50.4836 9.66664 49.6239 10.5238 48.5254 10.5238C47.4269 10.5238 46.5672 9.66664 46.5672 8.57141C46.5672 7.47617 47.4269 6.61902 48.5254 6.61902C49.6716 6.66664 50.4836 7.52379 50.4836 8.57141ZM42.5075 12.4762V12.9524C42.5075 12.9524 41.6 11.7619 39.594 11.7619C36.3463 11.7619 33.8149 14.2381 33.8149 17.6666C33.8149 21.0476 36.3463 23.5714 39.594 23.5714C41.6 23.5714 42.5075 22.3333 42.5075 22.3333V22.8571C42.5075 23.0952 42.6985 23.2857 42.9373 23.2857H45.3731V12.0476H42.9373C42.6507 12.0476 42.5075 12.2381 42.5075 12.4762ZM40.0716 20.8571C41.1701 20.8571 42.0776 20.2857 42.5075 19.619V15.619C42.0776 15 41.1224 14.3809 40.0716 14.3809C38.1612 14.3809 36.6806 15.5714 36.6806 17.619C36.6806 19.6666 38.1612 20.8571 40.0716 20.8571ZM49.9582 12.0476V23.2381H47.0925V12.0476H49.9582ZM87.0209 12.9524C87.0209 12.9524 87.9761 11.7619 89.9343 11.7619C93.1821 11.7619 95.7134 14.2381 95.7134 17.619C95.7134 21 93.1821 23.5238 89.9343 23.5238C87.9284 23.5238 87.0209 22.2857 87.0209 22.2857V22.8095C87.0209 23.0476 86.8298 23.2381 86.591 23.2381H84.1552V6.66664H87.0209V12.9524ZM89.4567 20.8095C88.3582 20.8095 87.4985 20.2381 87.0209 19.5714V15.5714C87.4507 14.9524 88.406 14.3333 89.4567 14.3333C91.3672 14.3333 92.8478 15.5238 92.8478 17.5714C92.8478 19.619 91.3672 20.8095 89.4567 20.8095ZM82.6746 23.2857V16.619C82.6746 14.7143 82.2925 13.6666 81.3373 12.8571C80.4776 12.1428 79.4269 11.7619 78.1851 11.7619C77.0866 11.7619 75.9881 12.0952 75.1284 12.9524V12.4762C75.1284 12.2381 74.9373 12.0476 74.6985 12.0476H72.406V23.2857H75.2716V15.4762C75.8448 14.8095 76.7522 14.3809 77.6119 14.3809C79.1881 14.3809 79.809 15.0952 79.809 16.9524V23.2857H82.6746ZM65.4328 11.7619C63.4746 11.7619 62.5194 12.9524 62.5194 12.9524V6.66664H59.6537V23.2381H62.0895C62.3284 23.2381 62.5194 23.0476 62.5194 22.8095V22.2857C62.5194 22.2857 63.4269 23.5238 65.4328 23.5238C68.6806 23.5238 71.2119 21 71.2119 17.619C71.2597 14.2381 68.7284 11.7619 65.4328 11.7619ZM62.5194 19.5714C62.997 20.2381 63.8567 20.8095 64.9552 20.8095C66.8657 20.8095 68.3463 19.619 68.3463 17.5714C68.3463 15.5238 66.8657 14.3333 64.9552 14.3333C63.9045 14.3333 62.9492 14.9524 62.5194 15.5714V19.5714ZM57.2179 11.7619C58.0776 11.7619 58.5552 11.9047 58.5552 11.9047V14.5714C58.5552 14.5714 56.1672 13.7619 54.6866 15.4762V23.2857H51.8209V12.0476H54.2567C54.4955 12.0476 54.6866 12.2381 54.6866 12.4762V12.9524C55.1642 12.3333 56.3104 11.7619 57.2179 11.7619ZM13.9463 23.7619C12.3224 21.7143 11.2716 19.8095 10.9373 18.2381C10.794 17.5714 10.7463 16.9524 10.8418 16.4285C10.8895 15.9524 11.0806 15.5238 11.3194 15.1905C11.8925 14.3809 12.8478 13.8571 13.9463 13.8571C15.0448 13.8571 16.0478 14.3333 16.5731 15.1905C16.8119 15.5714 17.003 15.9524 17.0507 16.4285C17.1463 16.9524 17.0985 17.5714 16.9552 18.2381C16.6209 19.8095 15.5701 21.7143 13.9463 23.7619ZM23.1642 28.6666C24.6448 28.0952 25.6955 26.7619 25.8866 25.1905C25.9821 24.3809 25.8866 23.6666 25.7433 22.9047C25.6916 22.7501 25.6259 22.5954 25.5537 22.4256C25.4926 22.2817 25.4269 22.1271 25.3612 21.9524C25.2418 21.7143 25.1343 21.4643 25.0269 21.2143C24.9194 20.9643 24.8119 20.7143 24.6925 20.4762V20.4285C22.6388 16 20.4418 11.4762 18.1492 7.0476L18.0537 6.85712C17.8149 6.38093 17.5761 5.90474 17.3373 5.47617C17.0985 4.99998 16.8119 4.52379 16.4776 4.14283C15.8567 3.42855 14.997 3.0476 14.0895 3.0476C13.1821 3.0476 12.3224 3.42855 11.7015 4.14283C11.3672 4.57141 11.0806 4.99998 10.8418 5.47617C10.603 5.95236 10.3642 6.42855 10.1254 6.85712L10.0298 7.0476C7.68955 11.4762 5.49253 16 3.4388 20.4285L3.39104 20.4762C3.15223 20.9524 2.91343 21.4762 2.72238 21.9524L2.72237 21.9524C2.57909 22.2857 2.43581 22.619 2.34029 22.9047C2.00596 23.7619 1.9582 24.4762 2.05373 25.2381C2.24477 26.7619 3.29552 28.0952 4.77611 28.7143C5.44477 28.9524 6.20895 29.0952 7.02089 29C7.78507 28.9047 8.54925 28.6666 9.31343 28.2381C10.3642 27.619 11.4627 26.7143 12.7045 25.3333C10.7463 22.9047 9.50447 20.6666 9.07462 18.7143C8.83581 17.8095 8.78805 16.9524 8.93134 16.1905C9.07462 15.4285 9.31343 14.7619 9.74328 14.1428C10.6507 12.8571 12.2269 12.0476 13.9463 12.0476C15.6657 12.0476 17.2418 12.8095 18.1492 14.1428C18.5791 14.7619 18.8179 15.4285 18.9612 16.1905C19.0567 16.9524 19.0089 17.8095 18.8179 18.7143C18.3403 20.6666 17.1463 22.8571 15.1881 25.2857C16.4298 26.6666 17.4806 27.5714 18.5791 28.1905C19.391 28.619 20.1075 28.8571 20.8716 28.9524C21.6836 29.0476 22.4478 28.9524 23.1642 28.6666Z" fill="#FF5A5F"/>
</svg>
