<svg width="102" height="120" viewBox="0 0 86 102" fill="none" xmlns="http://www.w3.org/2000/svg">
<path opacity="0.2" fill-rule="evenodd" clip-rule="evenodd" d="M83 6C84.6569 6 86 4.65685 86 3C86 1.34315 84.6569 0 83 0C81.3431 0 80 1.34315 80 3C80 4.65685 81.3431 6 83 6ZM83 22C84.6569 22 86 20.6569 86 19C86 17.3431 84.6569 16 83 16C81.3431 16 80 17.3431 80 19C80 20.6569 81.3431 22 83 22ZM83 38C84.6569 38 86 36.6569 86 35C86 33.3431 84.6569 32 83 32C81.3431 32 80 33.3431 80 35C80 36.6569 81.3431 38 83 38ZM83 54C84.6569 54 86 52.6569 86 51C86 49.3431 84.6569 48 83 48C81.3431 48 80 49.3431 80 51C80 52.6569 81.3431 54 83 54ZM83 70C84.6569 70 86 68.6569 86 67C86 65.3431 84.6569 64 83 64C81.3431 64 80 65.3431 80 67C80 68.6569 81.3431 70 83 70ZM83 86C84.6569 86 86 84.6569 86 83C86 81.3431 84.6569 80 83 80C81.3431 80 80 81.3431 80 83C80 84.6569 81.3431 86 83 86ZM6 99C6 100.657 4.65685 102 3 102C1.34315 102 0 100.657 0 99C0 97.3431 1.34315 96 3 96C4.65685 96 6 97.3431 6 99ZM19 102C20.6569 102 22 100.657 22 99C22 97.3431 20.6569 96 19 96C17.3431 96 16 97.3431 16 99C16 100.657 17.3431 102 19 102ZM38 99C38 100.657 36.6569 102 35 102C33.3431 102 32 100.657 32 99C32 97.3431 33.3431 96 35 96C36.6569 96 38 97.3431 38 99ZM51 102C52.6569 102 54 100.657 54 99C54 97.3431 52.6569 96 51 96C49.3431 96 48 97.3431 48 99C48 100.657 49.3431 102 51 102ZM70 99C70 100.657 68.6569 102 67 102C65.3431 102 64 100.657 64 99C64 97.3431 65.3431 96 67 96C68.6569 96 70 97.3431 70 99ZM86 99C86 100.657 84.6569 102 83 102C81.3431 102 80 100.657 80 99C80 97.3431 81.3431 96 83 96C84.6569 96 86 97.3431 86 99ZM70 83C70 84.6569 68.6569 86 67 86C65.3431 86 64 84.6569 64 83C64 81.3431 65.3431 80 67 80C68.6569 80 70 81.3431 70 83ZM51 86C52.6569 86 54 84.6569 54 83C54 81.3431 52.6569 80 51 80C49.3431 80 48 81.3431 48 83C48 84.6569 49.3431 86 51 86ZM38 83C38 84.6569 36.6569 86 35 86C33.3431 86 32 84.6569 32 83C32 81.3431 33.3431 80 35 80C36.6569 80 38 81.3431 38 83ZM19 86C20.6569 86 22 84.6569 22 83C22 81.3431 20.6569 80 19 80C17.3431 80 16 81.3431 16 83C16 84.6569 17.3431 86 19 86ZM6 83C6 84.6569 4.65685 86 3 86C1.34315 86 0 84.6569 0 83C0 81.3431 1.34315 80 3 80C4.65685 80 6 81.3431 6 83ZM70 67C70 68.6569 68.6569 70 67 70C65.3431 70 64 68.6569 64 67C64 65.3431 65.3431 64 67 64C68.6569 64 70 65.3431 70 67ZM51 70C52.6569 70 54 68.6569 54 67C54 65.3431 52.6569 64 51 64C49.3431 64 48 65.3431 48 67C48 68.6569 49.3431 70 51 70ZM38 67C38 68.6569 36.6569 70 35 70C33.3431 70 32 68.6569 32 67C32 65.3431 33.3431 64 35 64C36.6569 64 38 65.3431 38 67ZM19 70C20.6569 70 22 68.6569 22 67C22 65.3431 20.6569 64 19 64C17.3431 64 16 65.3431 16 67C16 68.6569 17.3431 70 19 70ZM6 67C6 68.6569 4.65685 70 3 70C1.34315 70 0 68.6569 0 67C0 65.3431 1.34315 64 3 64C4.65685 64 6 65.3431 6 67ZM70 51C70 52.6569 68.6569 54 67 54C65.3431 54 64 52.6569 64 51C64 49.3431 65.3431 48 67 48C68.6569 48 70 49.3431 70 51ZM51 54C52.6569 54 54 52.6569 54 51C54 49.3431 52.6569 48 51 48C49.3431 48 48 49.3431 48 51C48 52.6569 49.3431 54 51 54ZM38 51C38 52.6569 36.6569 54 35 54C33.3431 54 32 52.6569 32 51C32 49.3431 33.3431 48 35 48C36.6569 48 38 49.3431 38 51ZM19 54C20.6569 54 22 52.6569 22 51C22 49.3431 20.6569 48 19 48C17.3431 48 16 49.3431 16 51C16 52.6569 17.3431 54 19 54ZM6 51C6 52.6569 4.65685 54 3 54C1.34315 54 0 52.6569 0 51C0 49.3431 1.34315 48 3 48C4.65685 48 6 49.3431 6 51ZM70 35C70 36.6569 68.6569 38 67 38C65.3431 38 64 36.6569 64 35C64 33.3431 65.3431 32 67 32C68.6569 32 70 33.3431 70 35ZM51 38C52.6569 38 54 36.6569 54 35C54 33.3431 52.6569 32 51 32C49.3431 32 48 33.3431 48 35C48 36.6569 49.3431 38 51 38ZM38 35C38 36.6569 36.6569 38 35 38C33.3431 38 32 36.6569 32 35C32 33.3431 33.3431 32 35 32C36.6569 32 38 33.3431 38 35ZM19 38C20.6569 38 22 36.6569 22 35C22 33.3431 20.6569 32 19 32C17.3431 32 16 33.3431 16 35C16 36.6569 17.3431 38 19 38ZM6 35C6 36.6569 4.65685 38 3 38C1.34315 38 0 36.6569 0 35C0 33.3431 1.34315 32 3 32C4.65685 32 6 33.3431 6 35ZM70 19C70 20.6569 68.6569 22 67 22C65.3431 22 64 20.6569 64 19C64 17.3431 65.3431 16 67 16C68.6569 16 70 17.3431 70 19ZM51 22C52.6569 22 54 20.6569 54 19C54 17.3431 52.6569 16 51 16C49.3431 16 48 17.3431 48 19C48 20.6569 49.3431 22 51 22ZM38 19C38 20.6569 36.6569 22 35 22C33.3431 22 32 20.6569 32 19C32 17.3431 33.3431 16 35 16C36.6569 16 38 17.3431 38 19ZM19 22C20.6569 22 22 20.6569 22 19C22 17.3431 20.6569 16 19 16C17.3431 16 16 17.3431 16 19C16 20.6569 17.3431 22 19 22ZM6 19C6 20.6569 4.65685 22 3 22C1.34315 22 0 20.6569 0 19C0 17.3431 1.34315 16 3 16C4.65685 16 6 17.3431 6 19ZM70 3C70 4.65685 68.6569 6 67 6C65.3431 6 64 4.65685 64 3C64 1.34315 65.3431 0 67 0C68.6569 0 70 1.34315 70 3ZM51 6C52.6569 6 54 4.65685 54 3C54 1.34315 52.6569 0 51 0C49.3431 0 48 1.34315 48 3C48 4.65685 49.3431 6 51 6ZM38 3C38 4.65685 36.6569 6 35 6C33.3431 6 32 4.65685 32 3C32 1.34315 33.3431 0 35 0C36.6569 0 38 1.34315 38 3ZM19 6C20.6569 6 22 4.65685 22 3C22 1.34315 20.6569 0 19 0C17.3431 0 16 1.34315 16 3C16 4.65685 17.3431 6 19 6ZM6 3C6 4.65685 4.65685 6 3 6C1.34315 6 0 4.65685 0 3C0 1.34315 1.34315 0 3 0C4.65685 0 6 1.34315 6 3Z" fill="#7282A0"/>
</svg>
