<svg width="138" height="46" viewBox="0 0 96 32" fill="none" xmlns="http://www.w3.org/2000/svg">
<g opacity="0.9">
<path fill-rule="evenodd" clip-rule="evenodd" d="M13.6792 5.83962C13.6792 6.83019 12.8302 7.67925 11.8396 7.67925C10.8491 7.67925 10 6.83019 10 5.83962C10 4.84906 10.8491 4 11.8396 4C12.8302 4 13.6792 4.84906 13.6792 5.83962ZM11.8396 9.18868C10.7547 9.18868 9.90566 10.0377 9.90566 11.1226C9.90566 12.2075 10.7547 13.0566 11.8396 13.0566C12.9245 13.0566 13.7736 12.2075 13.7736 11.1226C13.7736 9.99057 12.9245 9.18868 11.8396 9.18868ZM9.85849 16.3113C9.85849 15.2264 10.7547 14.3302 11.8396 14.3302C12.9245 14.3302 13.8679 15.2736 13.8208 16.3113C13.8208 17.3962 12.9245 18.2925 11.8396 18.2925C10.7547 18.2925 9.85849 17.3962 9.85849 16.3113ZM11.8396 19.6132C10.7547 19.6132 9.90566 20.4623 9.90566 21.5472C9.90566 22.6321 10.7547 23.4811 11.8396 23.4811C12.9245 23.4811 13.7736 22.6321 13.7736 21.5472C13.7736 20.5094 12.9245 19.6132 11.8396 19.6132ZM10 26.783C10 25.7925 10.8491 24.9434 11.8396 24.9434C12.8302 24.9434 13.6792 25.7925 13.6792 26.783C13.6792 27.7736 12.8302 28.6226 11.8396 28.6226C10.8491 28.6226 10 27.7736 10 26.783ZM16.934 8.90566C15.7547 8.90566 14.7642 9.89623 14.7642 11.0755C14.7642 12.2547 15.7547 13.2453 16.934 13.2453C18.1132 13.2453 19.1038 12.2547 19.1038 11.0755C19.1038 9.89623 18.1132 8.90566 16.934 8.90566ZM14.6698 16.3585C14.6698 15.0849 15.6604 14.0943 16.934 14.0943C18.2075 14.0943 19.1981 15.0849 19.1981 16.3585C19.1981 17.6321 18.2075 18.6226 16.934 18.6226C15.6604 18.6226 14.6698 17.6321 14.6698 16.3585ZM16.934 19.3302C15.7547 19.3302 14.7642 20.3208 14.7642 21.5C14.7642 22.6792 15.7547 23.6698 16.934 23.6698C18.1132 23.6698 19.1038 22.6792 19.1038 21.5C19.1038 20.3679 18.1132 19.3302 16.934 19.3302ZM19.717 16.3585C19.717 14.9434 20.8962 13.8585 22.217 13.8585C23.5377 13.8585 24.6226 14.9434 24.717 16.3585C24.717 17.7736 23.6321 18.8585 22.217 18.8585C20.8019 18.8585 19.717 17.6792 19.717 16.3585ZM6.69811 9.42453C5.80189 9.42453 5.04717 10.1792 5.04717 11.0755C5.04717 11.9717 5.80189 12.7264 6.69811 12.7264C7.59434 12.7264 8.34906 11.9717 8.34906 11.0755C8.34906 10.1792 7.59434 9.42453 6.69811 9.42453ZM4.95283 16.3585C4.95283 15.3679 5.70755 14.6132 6.69811 14.6132C7.68868 14.6132 8.4434 15.3679 8.4434 16.3585C8.4434 17.3491 7.68868 18.1038 6.69811 18.1038C5.70755 18.1038 4.95283 17.3491 4.95283 16.3585ZM6.69811 19.8491C5.80189 19.8491 5.04717 20.6038 5.04717 21.5C5.04717 22.3962 5.80189 23.1509 6.69811 23.1509C7.59434 23.1509 8.34906 22.3962 8.34906 21.5C8.34906 20.6038 7.59434 19.8491 6.69811 19.8491ZM0 16.3585C0 15.5094 0.660377 14.8491 1.50943 14.8491C2.35849 14.8491 3.01887 15.5094 3.01887 16.3585C3.01887 17.2075 2.35849 17.8679 1.50943 17.8679C0.660377 17.8679 0 17.2075 0 16.3585Z" fill="#8C98A4"/>
<path d="M43.5377 13.1038C43.3491 13.1038 43.2076 13.2924 43.2076 13.4339V26.5472C43.2076 26.7358 43.3962 26.8773 43.5377 26.8773H45.1415C45.3302 26.8773 45.4717 26.6887 45.4717 26.5472V13.4339C45.4717 13.2453 45.283 13.1038 45.1415 13.1038H43.5377Z" fill="#8C98A4"/>
<path d="M44.3868 7.58496C43.5377 7.58496 42.8774 8.24534 42.8774 9.09439C42.8774 9.94345 43.5377 10.6038 44.3868 10.6038C45.2359 10.6038 45.8962 9.94345 45.8962 9.09439C45.8962 8.24534 45.2359 7.58496 44.3868 7.58496Z" fill="#8C98A4"/>
<path d="M77.1698 13.1038C76.9811 13.1038 76.8396 13.2924 76.8396 13.4339V26.5472C76.8396 26.7358 77.0283 26.8773 77.1698 26.8773H78.7736C78.9623 26.8773 79.1038 26.6887 79.1038 26.5472V13.4339C79.1038 13.2453 78.9151 13.1038 78.7736 13.1038H77.1698Z" fill="#8C98A4"/>
<path d="M77.9245 7.58496C77.0755 7.58496 76.4151 8.24534 76.4151 9.09439C76.4151 9.94345 77.0755 10.6038 77.9245 10.6038C78.7736 10.6038 79.434 9.94345 79.434 9.09439C79.434 8.24534 78.7736 7.58496 77.9245 7.58496Z" fill="#8C98A4"/>
<path fill-rule="evenodd" clip-rule="evenodd" d="M93.8614 25.4468C93.852 25.4927 93.8291 25.5483 93.7736 25.6038C93.7736 25.6982 93.6792 25.7925 93.4906 25.7453L93.5628 25.8336C93.5534 25.8374 93.545 25.8397 93.5377 25.8397H93.3962L93.7264 26.2642H93.9151L93.5628 25.8336C93.5785 25.8272 93.597 25.8164 93.6173 25.8045C93.6631 25.7777 93.7183 25.7453 93.7736 25.7453C93.8679 25.7453 93.8679 25.651 93.8679 25.5567C93.8679 25.5179 93.8679 25.4791 93.8614 25.4468ZM93.2075 25.8397V25.6982V25.2736H93.5377C93.6321 25.2736 93.7264 25.2736 93.7736 25.368C93.8291 25.368 93.852 25.4007 93.8614 25.4468C93.8679 25.4148 93.8679 25.3874 93.8679 25.368V25.2736C93.8679 25.2736 93.8679 25.1793 93.7736 25.1793C93.7736 25.1793 93.6792 25.085 93.5849 25.085H93.3962H92.9717V26.2642H93.1604V25.8397H93.2075Z" fill="#8C98A4"/>
<path fill-rule="evenodd" clip-rule="evenodd" d="M92.3585 25.6979C92.3585 25.1319 92.8774 24.613 93.4434 24.613C94.0094 24.613 94.5283 25.1319 94.5283 25.6979C94.5283 26.264 94.0094 26.7828 93.4434 26.7828C92.8774 26.7828 92.3585 26.264 92.3585 25.6979ZM92.4528 25.6979C92.4528 26.264 92.8774 26.6885 93.4434 26.6885C93.9623 26.6885 94.434 26.264 94.434 25.6979C94.434 25.1319 94.0094 24.7074 93.4434 24.7074C92.8774 24.7074 92.4528 25.1319 92.4528 25.6979Z" fill="#8C98A4"/>
<path d="M56.5566 15.2735C56.7453 15.2735 56.8868 15.0849 56.8868 14.9434V13.3396C56.8868 13.1509 56.6981 13.0094 56.5566 13.0094H53.2075V8.00939C53.2075 7.82071 53.0189 7.6792 52.8774 7.6792H51.2736C51.0849 7.6792 50.9434 7.86788 50.9434 8.00939V13.0094H49.2925C49.1038 13.0094 48.9623 13.1981 48.9623 13.3396V14.9434C48.9623 15.132 49.1509 15.2735 49.2925 15.2735H50.9434V22.8679C50.9434 25.2264 52.5472 26.6886 54.7642 26.6886H56.4151C56.6038 26.6886 56.7453 26.5 56.7453 26.3584V24.7547C56.7453 24.566 56.5566 24.4245 56.4151 24.4245H55C53.9151 24.4245 53.1604 23.6698 53.1604 22.4905V15.1792H56.5094L56.5566 15.2735Z" fill="#8C98A4"/>
<path d="M89.7642 15.2735C89.9528 15.2735 90.0943 15.0849 90.0943 14.9434V13.3396C90.0943 13.1509 89.9057 13.0094 89.7642 13.0094H86.4151V8.00939C86.4151 7.82071 86.2264 7.6792 86.0849 7.6792H84.4811C84.2925 7.6792 84.1509 7.86788 84.1509 8.00939V13.0094H82.5C82.3113 13.0094 82.1698 13.1981 82.1698 13.3396V14.9434C82.1698 15.132 82.3585 15.2735 82.5 15.2735H84.1509V22.8679C84.1509 25.2264 85.7547 26.6886 87.9717 26.6886H89.6226C89.8113 26.6886 89.9528 26.5 89.9528 26.3584V24.7547C89.9528 24.566 89.7642 24.4245 89.6226 24.4245H88.2076C87.1226 24.4245 86.3679 23.6698 86.3679 22.4905V15.1792H89.8113L89.7642 15.2735Z" fill="#8C98A4"/>
<path d="M33.6321 15.2736V26.4528C33.6321 26.6415 33.8208 26.783 33.9623 26.783H35.566C35.7547 26.783 35.8962 26.5943 35.8962 26.4528V15.2736H39.5755C39.7642 15.2736 39.9057 15.0849 39.9057 14.9434V13.3396C39.9057 13.1509 39.717 13.0094 39.5755 13.0094H35.8962V10.0849C35.8962 8.90564 36.7453 8.10375 37.7359 8.10375H39.5755C39.7642 8.10375 39.9057 7.91507 39.9057 7.77356V6.16979C39.9057 5.98111 39.717 5.8396 39.5755 5.8396H37.8302C35.4717 5.8396 33.6793 7.77356 33.6793 9.99054V13.0094H32.0283C31.8396 13.0094 31.6981 13.1981 31.6981 13.3396V14.9434C31.6981 15.1321 31.8868 15.2736 32.0283 15.2736H33.6321Z" fill="#8C98A4"/>
<path fill-rule="evenodd" clip-rule="evenodd" d="M66.9811 12.5847C68.8208 12.5847 70.566 13.3395 71.8396 14.6602C73.1132 16.0281 73.7736 17.8206 73.6321 19.8489C73.6321 24.9432 70.2358 27.2074 66.8868 27.2074C63.5849 27.2074 60.1415 24.9432 60.1415 19.8489V6.07531C60.1415 5.9338 60.283 5.74512 60.4717 5.74512H62.0755C62.217 5.74512 62.4057 5.88663 62.4057 6.07531V14.4244C63.4906 13.3395 65.2358 12.5847 66.9811 12.5847ZM62.4057 19.8961C62.4057 22.3961 63.6321 25.0847 66.9811 25.0847C70.3302 25.0847 71.5094 22.4432 71.5566 19.8961C71.5566 16.8772 69.717 14.8017 66.9811 14.8017C64.2453 14.8017 62.4057 16.83 62.4057 19.8961Z" fill="#8C98A4"/>
</g>
</svg>
