<svg width="138" height="46" viewBox="0 0 98 32" fill="none" xmlns="http://www.w3.org/2000/svg">
<path d="M24 11.2484H12.6545V14.5938H20.703C20.3152 19.2969 16.3879 21.3332 12.6545 21.3332C7.90303 21.3332 3.78182 17.5999 3.78182 12.3635C3.8303 7.27263 7.75758 3.39385 12.703 3.39385C16.5333 3.39385 18.7636 5.81809 18.7636 5.81809L21.1394 3.39385C21.1394 3.39385 18.1333 0.0483917 12.6061 0.0483917C5.52727 -9.3136e-05 0.145454 5.91506 0.145454 12.3151C0.145454 18.5696 5.23636 24.6787 12.7515 24.6787C19.3455 24.6787 24.1939 20.1696 24.1939 13.4787C24.1939 12.0726 24 11.2484 24 11.2484Z" fill="#8C98A4"/>
<path fill-rule="evenodd" clip-rule="evenodd" d="M25.2606 16.6788C25.2606 12.4606 28.6061 8.82422 33.2606 8.82422C37.0909 8.82422 41.2121 11.4909 41.2121 16.7757C41.2121 21.3333 37.6727 24.6788 33.3091 24.6788C28.5091 24.6788 25.2606 20.9939 25.2606 16.6788ZM37.7697 16.7272C37.7697 13.7697 35.5879 11.9272 33.3091 11.9272C30.7394 11.9272 28.7515 13.9636 28.8 16.6788C28.8 19.4909 30.7879 21.5272 33.3091 21.5272C35.6364 21.5272 37.7697 19.6363 37.7697 16.7272Z" fill="#8C98A4"/>
<path fill-rule="evenodd" clip-rule="evenodd" d="M42.6182 16.6788C42.6182 12.4606 45.9636 8.82422 50.6182 8.82422C54.4485 8.82422 58.5697 11.4909 58.5697 16.7757C58.5697 21.3333 55.0303 24.6788 50.6667 24.6788C45.8667 24.6788 42.6182 20.9939 42.6182 16.6788ZM55.1273 16.7272C55.1273 13.7697 52.9455 11.9272 50.6667 11.9272C48.097 11.9272 46.1091 13.9636 46.1576 16.6788C46.1576 19.4909 48.1455 21.5272 50.6667 21.5272C52.9939 21.5272 55.1273 19.6363 55.1273 16.7272Z" fill="#8C98A4"/>
<path fill-rule="evenodd" clip-rule="evenodd" d="M60.0242 16.7757C60.0242 12.5576 63.3697 8.82422 67.6364 8.82422C69.4788 8.82422 70.8848 9.55149 71.8545 10.6666V9.30907H75.2V23.5151C75.2 29.1394 71.9515 31.806 67.7333 31.806C63.8545 31.806 61.6727 29.4303 60.6061 27.1515L63.7091 25.8909C64.1455 26.9091 65.3576 28.703 67.7818 28.703C70.303 28.703 71.9515 27.0545 71.9515 24.3394V22.7879C71.0303 23.806 69.8667 24.7272 67.5879 24.7272C63.903 24.7272 60.0242 21.5272 60.0242 16.7757ZM72.1455 16.7757C72.1455 13.7212 70.0121 11.9272 67.9273 11.9272C65.697 11.9272 63.5152 13.7212 63.4667 16.7757C63.4667 19.7333 65.6 21.5757 67.8788 21.5757C70.0121 21.5757 72.1455 19.8788 72.1455 16.7757Z" fill="#8C98A4"/>
<path fill-rule="evenodd" clip-rule="evenodd" d="M82.6182 16.6789C82.6182 11.9759 86.0121 8.77588 90.0364 8.77588C93.1879 8.77588 95.5636 10.9092 96.6303 13.3335L97.1636 14.6425L86.5455 19.0547C87.1758 20.2668 88.1939 21.4789 90.4242 21.4789C92.4121 21.4789 93.5758 20.4122 94.303 19.2971L97.0667 21.1395C95.8545 22.788 93.7697 24.6304 90.4242 24.6304C86.4 24.6304 82.6182 21.6728 82.6182 16.6789ZM93.0909 13.5274C92.6061 12.6062 91.5879 11.8304 90.1333 11.8304C87.8545 11.8304 85.6727 14.2062 85.9636 16.485L93.0909 13.5274Z" fill="#8C98A4"/>
<path d="M77.5273 24.1939H81.0182V0.824219H77.5273V24.1939Z" fill="#8C98A4"/>
</svg>
