<svg width="120" height="142" viewBox="0 0 120 142" fill="none" xmlns="http://www.w3.org/2000/svg">
<path opacity="0.2" fill-rule="evenodd" clip-rule="evenodd" d="M115.814 8.35294C118.126 8.35294 120 6.48307 120 4.17647C120 1.86987 118.126 0 115.814 0C113.502 0 111.628 1.86987 111.628 4.17647C111.628 6.48307 113.502 8.35294 115.814 8.35294ZM115.814 30.6275C118.126 30.6275 120 28.7576 120 26.451C120 24.1444 118.126 22.2745 115.814 22.2745C113.502 22.2745 111.628 24.1444 111.628 26.451C111.628 28.7576 113.502 30.6275 115.814 30.6275ZM115.814 52.902C118.126 52.902 120 51.0321 120 48.7255C120 46.4189 118.126 44.549 115.814 44.549C113.502 44.549 111.628 46.4189 111.628 48.7255C111.628 51.0321 113.502 52.902 115.814 52.902ZM115.814 75.1765C118.126 75.1765 120 73.3066 120 71C120 68.6934 118.126 66.8235 115.814 66.8235C113.502 66.8235 111.628 68.6934 111.628 71C111.628 73.3066 113.502 75.1765 115.814 75.1765ZM115.814 97.451C118.126 97.451 120 95.5811 120 93.2745C120 90.9679 118.126 89.098 115.814 89.098C113.502 89.098 111.628 90.9679 111.628 93.2745C111.628 95.5811 113.502 97.451 115.814 97.451ZM115.814 119.725C118.126 119.725 120 117.856 120 115.549C120 113.242 118.126 111.373 115.814 111.373C113.502 111.373 111.628 113.242 111.628 115.549C111.628 117.856 113.502 119.725 115.814 119.725ZM8.37209 137.824C8.37209 140.13 6.49794 142 4.18605 142C1.87416 142 0 140.13 0 137.824C0 135.517 1.87416 133.647 4.18605 133.647C6.49794 133.647 8.37209 135.517 8.37209 137.824ZM26.5116 142C28.8235 142 30.6977 140.13 30.6977 137.824C30.6977 135.517 28.8235 133.647 26.5116 133.647C24.1997 133.647 22.3256 135.517 22.3256 137.824C22.3256 140.13 24.1997 142 26.5116 142ZM53.0233 137.824C53.0233 140.13 51.1491 142 48.8372 142C46.5253 142 44.6512 140.13 44.6512 137.824C44.6512 135.517 46.5253 133.647 48.8372 133.647C51.1491 133.647 53.0233 135.517 53.0233 137.824ZM71.1628 142C73.4747 142 75.3488 140.13 75.3488 137.824C75.3488 135.517 73.4747 133.647 71.1628 133.647C68.8509 133.647 66.9767 135.517 66.9767 137.824C66.9767 140.13 68.8509 142 71.1628 142ZM97.6744 137.824C97.6744 140.13 95.8003 142 93.4884 142C91.1765 142 89.3023 140.13 89.3023 137.824C89.3023 135.517 91.1765 133.647 93.4884 133.647C95.8003 133.647 97.6744 135.517 97.6744 137.824ZM120 137.824C120 140.13 118.126 142 115.814 142C113.502 142 111.628 140.13 111.628 137.824C111.628 135.517 113.502 133.647 115.814 133.647C118.126 133.647 120 135.517 120 137.824ZM97.6744 115.549C97.6744 117.856 95.8003 119.725 93.4884 119.725C91.1765 119.725 89.3023 117.856 89.3023 115.549C89.3023 113.242 91.1765 111.373 93.4884 111.373C95.8003 111.373 97.6744 113.242 97.6744 115.549ZM71.1628 119.725C73.4747 119.725 75.3488 117.856 75.3488 115.549C75.3488 113.242 73.4747 111.373 71.1628 111.373C68.8509 111.373 66.9767 113.242 66.9767 115.549C66.9767 117.856 68.8509 119.725 71.1628 119.725ZM53.0233 115.549C53.0233 117.856 51.1491 119.725 48.8372 119.725C46.5253 119.725 44.6512 117.856 44.6512 115.549C44.6512 113.242 46.5253 111.373 48.8372 111.373C51.1491 111.373 53.0233 113.242 53.0233 115.549ZM26.5116 119.725C28.8235 119.725 30.6977 117.856 30.6977 115.549C30.6977 113.242 28.8235 111.373 26.5116 111.373C24.1997 111.373 22.3256 113.242 22.3256 115.549C22.3256 117.856 24.1997 119.725 26.5116 119.725ZM8.37209 115.549C8.37209 117.856 6.49794 119.725 4.18605 119.725C1.87416 119.725 0 117.856 0 115.549C0 113.242 1.87416 111.373 4.18605 111.373C6.49794 111.373 8.37209 113.242 8.37209 115.549ZM97.6744 93.2745C97.6744 95.5811 95.8003 97.451 93.4884 97.451C91.1765 97.451 89.3023 95.5811 89.3023 93.2745C89.3023 90.9679 91.1765 89.098 93.4884 89.098C95.8003 89.098 97.6744 90.9679 97.6744 93.2745ZM71.1628 97.451C73.4747 97.451 75.3488 95.5811 75.3488 93.2745C75.3488 90.9679 73.4747 89.098 71.1628 89.098C68.8509 89.098 66.9767 90.9679 66.9767 93.2745C66.9767 95.5811 68.8509 97.451 71.1628 97.451ZM53.0233 93.2745C53.0233 95.5811 51.1491 97.451 48.8372 97.451C46.5253 97.451 44.6512 95.5811 44.6512 93.2745C44.6512 90.9679 46.5253 89.098 48.8372 89.098C51.1491 89.098 53.0233 90.9679 53.0233 93.2745ZM26.5116 97.451C28.8235 97.451 30.6977 95.5811 30.6977 93.2745C30.6977 90.9679 28.8235 89.098 26.5116 89.098C24.1997 89.098 22.3256 90.9679 22.3256 93.2745C22.3256 95.5811 24.1997 97.451 26.5116 97.451ZM8.37209 93.2745C8.37209 95.5811 6.49794 97.451 4.18605 97.451C1.87416 97.451 0 95.5811 0 93.2745C0 90.9679 1.87416 89.098 4.18605 89.098C6.49794 89.098 8.37209 90.9679 8.37209 93.2745ZM97.6744 71C97.6744 73.3066 95.8003 75.1765 93.4884 75.1765C91.1765 75.1765 89.3023 73.3066 89.3023 71C89.3023 68.6934 91.1765 66.8235 93.4884 66.8235C95.8003 66.8235 97.6744 68.6934 97.6744 71ZM71.1628 75.1765C73.4747 75.1765 75.3488 73.3066 75.3488 71C75.3488 68.6934 73.4747 66.8235 71.1628 66.8235C68.8509 66.8235 66.9767 68.6934 66.9767 71C66.9767 73.3066 68.8509 75.1765 71.1628 75.1765ZM53.0233 71C53.0233 73.3066 51.1491 75.1765 48.8372 75.1765C46.5253 75.1765 44.6512 73.3066 44.6512 71C44.6512 68.6934 46.5253 66.8235 48.8372 66.8235C51.1491 66.8235 53.0233 68.6934 53.0233 71ZM26.5116 75.1765C28.8235 75.1765 30.6977 73.3066 30.6977 71C30.6977 68.6934 28.8235 66.8235 26.5116 66.8235C24.1997 66.8235 22.3256 68.6934 22.3256 71C22.3256 73.3066 24.1997 75.1765 26.5116 75.1765ZM8.37209 71C8.37209 73.3066 6.49794 75.1765 4.18605 75.1765C1.87416 75.1765 0 73.3066 0 71C0 68.6934 1.87416 66.8235 4.18605 66.8235C6.49794 66.8235 8.37209 68.6934 8.37209 71ZM97.6744 48.7255C97.6744 51.0321 95.8003 52.902 93.4884 52.902C91.1765 52.902 89.3023 51.0321 89.3023 48.7255C89.3023 46.4189 91.1765 44.549 93.4884 44.549C95.8003 44.549 97.6744 46.4189 97.6744 48.7255ZM71.1628 52.902C73.4747 52.902 75.3488 51.0321 75.3488 48.7255C75.3488 46.4189 73.4747 44.549 71.1628 44.549C68.8509 44.549 66.9767 46.4189 66.9767 48.7255C66.9767 51.0321 68.8509 52.902 71.1628 52.902ZM53.0233 48.7255C53.0233 51.0321 51.1491 52.902 48.8372 52.902C46.5253 52.902 44.6512 51.0321 44.6512 48.7255C44.6512 46.4189 46.5253 44.549 48.8372 44.549C51.1491 44.549 53.0233 46.4189 53.0233 48.7255ZM26.5116 52.902C28.8235 52.902 30.6977 51.0321 30.6977 48.7255C30.6977 46.4189 28.8235 44.549 26.5116 44.549C24.1997 44.549 22.3256 46.4189 22.3256 48.7255C22.3256 51.0321 24.1997 52.902 26.5116 52.902ZM8.37209 48.7255C8.37209 51.0321 6.49794 52.902 4.18605 52.902C1.87416 52.902 0 51.0321 0 48.7255C0 46.4189 1.87416 44.549 4.18605 44.549C6.49794 44.549 8.37209 46.4189 8.37209 48.7255ZM97.6744 26.451C97.6744 28.7576 95.8003 30.6275 93.4884 30.6275C91.1765 30.6275 89.3023 28.7576 89.3023 26.451C89.3023 24.1444 91.1765 22.2745 93.4884 22.2745C95.8003 22.2745 97.6744 24.1444 97.6744 26.451ZM71.1628 30.6275C73.4747 30.6275 75.3488 28.7576 75.3488 26.451C75.3488 24.1444 73.4747 22.2745 71.1628 22.2745C68.8509 22.2745 66.9767 24.1444 66.9767 26.451C66.9767 28.7576 68.8509 30.6275 71.1628 30.6275ZM53.0233 26.451C53.0233 28.7576 51.1491 30.6275 48.8372 30.6275C46.5253 30.6275 44.6512 28.7576 44.6512 26.451C44.6512 24.1444 46.5253 22.2745 48.8372 22.2745C51.1491 22.2745 53.0233 24.1444 53.0233 26.451ZM26.5116 30.6275C28.8235 30.6275 30.6977 28.7576 30.6977 26.451C30.6977 24.1444 28.8235 22.2745 26.5116 22.2745C24.1997 22.2745 22.3256 24.1444 22.3256 26.451C22.3256 28.7576 24.1997 30.6275 26.5116 30.6275ZM8.37209 26.451C8.37209 28.7576 6.49794 30.6275 4.18605 30.6275C1.87416 30.6275 0 28.7576 0 26.451C0 24.1444 1.87416 22.2745 4.18605 22.2745C6.49794 22.2745 8.37209 24.1444 8.37209 26.451ZM97.6744 4.17647C97.6744 6.48307 95.8003 8.35294 93.4884 8.35294C91.1765 8.35294 89.3023 6.48307 89.3023 4.17647C89.3023 1.86987 91.1765 0 93.4884 0C95.8003 0 97.6744 1.86987 97.6744 4.17647ZM71.1628 8.35294C73.4747 8.35294 75.3488 6.48307 75.3488 4.17647C75.3488 1.86987 73.4747 0 71.1628 0C68.8509 0 66.9767 1.86987 66.9767 4.17647C66.9767 6.48307 68.8509 8.35294 71.1628 8.35294ZM53.0233 4.17647C53.0233 6.48307 51.1491 8.35294 48.8372 8.35294C46.5253 8.35294 44.6512 6.48307 44.6512 4.17647C44.6512 1.86987 46.5253 0 48.8372 0C51.1491 0 53.0233 1.86987 53.0233 4.17647ZM26.5116 8.35294C28.8235 8.35294 30.6977 6.48307 30.6977 4.17647C30.6977 1.86987 28.8235 0 26.5116 0C24.1997 0 22.3256 1.86987 22.3256 4.17647C22.3256 6.48307 24.1997 8.35294 26.5116 8.35294ZM8.37209 4.17647C8.37209 6.48307 6.49794 8.35294 4.18605 8.35294C1.87416 8.35294 0 6.48307 0 4.17647C0 1.86987 1.87416 0 4.18605 0C6.49794 0 8.37209 1.86987 8.37209 4.17647Z" fill="#7282A0"/>
</svg>
