<?xml version="1.0" encoding="UTF-8"?>
<svg width="32px" height="32px" viewBox="0 0 34 34" version="1.1" xmlns="http://www.w3.org/2000/svg" xmlns:xlink="http://www.w3.org/1999/xlink">
    <!-- Generator: Sketch 64 (93537) - https://sketch.com -->
    <title>Icon_Workflow</title>
    <desc>Created with Sketch.</desc>
    <defs>
        <rect id="path-1" x="0" y="0" width="1440" height="740"></rect>
        <rect id="path-3" x="0" y="0" width="466" height="162" rx="16"></rect>
        <filter x="-12.9%" y="-27.8%" width="125.8%" height="174.1%" filterUnits="objectBoundingBox" id="filter-4">
            <feOffset dx="0" dy="15" in="SourceAlpha" result="shadowOffsetOuter1"></feOffset>
            <feGaussianBlur stdDeviation="17.5" in="shadowOffsetOuter1" result="shadowBlurOuter1"></feGaussianBlur>
            <feComposite in="shadowBlurOuter1" in2="SourceAlpha" operator="out" result="shadowBlurOuter1"></feComposite>
            <feColorMatrix values="0 0 0 0 0   0 0 0 0 0   0 0 0 0 0  0 0 0 0.05 0" type="matrix" in="shadowBlurOuter1"></feColorMatrix>
        </filter>
    </defs>
    <g id="Other-pages" stroke="none" stroke-width="1" fill="none" fill-rule="evenodd">
        <g id="Documentation" transform="translate(-763.000000, -608.000000)">
            <g id="Hero">
                <g id="Background">
                    <g id="Base">
                        <mask id="mask-2" fill="white">
                            <use xlink:href="#path-1"></use>
                        </mask>
                        <use id="Mask" fill="#264EEE" xlink:href="#path-1"></use>
                    </g>
                    <path d="M1440,740 L0,740 L0,565 C240,618.333333 480,645 720,645 C960,645 1200,618.333333 1440,565 L1440,740 Z" id="Wave" fill="#FFFFFF"></path>
                </g>
            </g>
            <g id="Features" transform="translate(246.000000, 573.000000)">
                <g id="Item" transform="translate(482.000000, 0.000000)">
                    <g id="Base">
                        <use fill="black" fill-opacity="1" filter="url(#filter-4)" xlink:href="#path-3"></use>
                        <rect stroke="#E5EAF4" stroke-width="1" stroke-linejoin="square" fill="#FFFFFF" fill-rule="evenodd" x="0.5" y="0.5" width="465" height="161" rx="16"></rect>
                    </g>
                    <g id="Icon_Workflow" transform="translate(32.000000, 32.000000)">
                        <polygon id="path" points="0 0 40 0 40 40 0 40"></polygon>
                        <path d="M19.2455768,31.754878 L20.3794957,32.888797 C20.8409811,33.3502824 20.8409811,34.0984981 20.3794957,34.5599835 C19.9180103,35.0214689 19.1697946,35.0214689 18.7083092,34.5599835 L15.5570897,31.408764 C15.0956043,30.9472786 15.0956043,30.1990629 15.5570897,29.7375775 L18.7083092,26.586358 C19.1697946,26.1248725 19.9180103,26.1248725 20.3794957,26.586358 C20.8409811,27.0478434 20.8409811,27.7960591 20.3794957,28.2575445 L19.2455768,29.3914634 L27.0280488,29.3914634 L27.0280488,31.754878 L19.2455768,31.754878 L19.2455768,31.754878 Z M31.754878,19.8422281 L32.888797,18.7083092 C33.3502824,18.2468238 34.0984981,18.2468238 34.5599835,18.7083092 C35.0214689,19.1697946 35.0214689,19.9180103 34.5599835,20.3794957 L31.408764,23.5307152 C31.1780213,23.7614579 30.875596,23.8768293 30.5731707,23.8768293 C30.2707455,23.8768293 29.9683202,23.7614579 29.7375775,23.5307152 L26.586358,20.3794957 C26.1248725,19.9180103 26.1248725,19.1697946 26.586358,18.7083092 C27.0478434,18.2468238 27.7960591,18.2468238 28.2575445,18.7083092 L29.3914634,19.8422281 L29.3914634,12.0597561 L31.754878,12.0597561 L31.754878,19.8422281 L31.754878,19.8422281 Z M19.8422281,9.69634146 L12.0597561,9.69634146 L12.0597561,7.33292683 L19.8422281,7.33292683 L18.7083092,6.19900789 C18.2468238,5.73752248 18.2468238,4.98930679 18.7083092,4.52782138 C19.1697946,4.06633596 19.9180103,4.06633596 20.3794957,4.52782138 L23.5307152,7.67904089 C23.9922006,8.1405263 23.9922006,8.88874199 23.5307152,9.3502274 L20.3794957,12.5014469 C19.9180103,12.9629323 19.1697946,12.9629323 18.7083092,12.5014469 C18.2468238,12.0399615 18.2468238,11.2917458 18.7083092,10.8302604 L19.8422281,9.69634146 L19.8422281,9.69634146 Z M7.33292683,19.2455768 L6.19900789,20.3794957 C5.73752248,20.8409811 4.98930679,20.8409811 4.52782138,20.3794957 C4.06633596,19.9180103 4.06633596,19.1697946 4.52782138,18.7083092 L7.67904089,15.5570897 C8.1405263,15.0956043 8.88874199,15.0956043 9.3502274,15.5570897 L12.5014469,18.7083092 C12.9629323,19.1697946 12.9629323,19.9180103 12.5014469,20.3794957 C12.0399615,20.8409811 11.2917458,20.8409811 10.8302604,20.3794957 L9.69634146,19.2455768 L9.69634146,27.0280488 L7.33292683,27.0280488 L7.33292683,19.2455768 Z" id="path" fill="#264eee" opacity="0.3"></path>
                        <path d="M11.6658537,25.0585366 C12.9711315,25.0585366 14.0292683,26.1166734 14.0292683,27.4219512 L14.0292683,33.7243902 C14.0292683,35.0296681 12.9711315,36.0878049 11.6658537,36.0878049 L5.36341463,36.0878049 C4.05813677,36.0878049 3,35.0296681 3,33.7243902 L3,27.4219512 C3,26.1166734 4.05813677,25.0585366 5.36341463,25.0585366 L11.6658537,25.0585366 Z M33.7243902,25.0585366 C35.0296681,25.0585366 36.0878049,26.1166734 36.0878049,27.4219512 L36.0878049,33.7243902 C36.0878049,35.0296681 35.0296681,36.0878049 33.7243902,36.0878049 L27.4219512,36.0878049 C26.1166734,36.0878049 25.0585366,35.0296681 25.0585366,33.7243902 L25.0585366,27.4219512 C25.0585366,26.1166734 26.1166734,25.0585366 27.4219512,25.0585366 L33.7243902,25.0585366 Z M11.6658537,3 C12.9711315,3 14.0292683,4.05813677 14.0292683,5.36341463 L14.0292683,11.6658537 C14.0292683,12.9711315 12.9711315,14.0292683 11.6658537,14.0292683 L5.36341463,14.0292683 C4.05813677,14.0292683 3,12.9711315 3,11.6658537 L3,5.36341463 C3,4.05813677 4.05813677,3 5.36341463,3 L11.6658537,3 Z M33.7243902,3 C35.0296681,3 36.0878049,4.05813677 36.0878049,5.36341463 L36.0878049,11.6658537 C36.0878049,12.9711315 35.0296681,14.0292683 33.7243902,14.0292683 L27.4219512,14.0292683 C26.1166734,14.0292683 25.0585366,12.9711315 25.0585366,11.6658537 L25.0585366,5.36341463 C25.0585366,4.05813677 26.1166734,3 27.4219512,3 L33.7243902,3 Z" id="path" fill="#264eee"></path>
                    </g>
                </g>
            </g>
        </g>
    </g>
</svg>