<svg width="138" height="46" viewBox="0 0 96 32" fill="none" xmlns="http://www.w3.org/2000/svg">
<path d="M15.0448 6.73251V18.0139C15.0448 21.7744 13.4209 23.3372 9.6 23.3372C5.77911 23.3372 4.15522 21.7744 4.15522 18.0139V6.24414H0.477612C0.143284 6.24414 0 6.39065 0 6.73251V18.1604C0 24.4604 3.91642 26.6581 9.6 26.6581C15.2836 26.6581 19.2 24.4604 19.2 18.1604V6.24414H15.5224C15.2358 6.24414 15.0448 6.39065 15.0448 6.73251Z" fill="#8C98A4"/>
<path d="M68.394 9.51623C68.6806 9.51623 68.8239 9.41856 68.9194 9.17437L69.9701 6.48833C70.0179 6.34182 69.9701 6.24414 69.8269 6.24414H55.0209C53.6358 6.24414 53.1104 6.68368 53.1104 7.66042V25.1441C53.1104 25.9744 53.4925 26.3162 54.591 26.3162H68.394C68.6806 26.3162 68.8239 26.2186 68.9194 25.9744L69.9701 23.2883C70.0179 23.1418 69.9701 23.0441 69.8269 23.0441H57.1701V19.479C57.1701 18.2581 57.8388 17.672 59.606 17.672H65.0985C65.3851 17.672 65.5284 17.5744 65.6239 17.3302L66.6269 14.7418C66.6746 14.5953 66.6269 14.4976 66.4836 14.4976H57.1224V9.51623H68.394Z" fill="#8C98A4"/>
<path fill-rule="evenodd" clip-rule="evenodd" d="M44.609 11.3232C44.609 13.2279 43.9403 14.8395 42.3164 15.7186C44.5134 16.3534 45.5164 18.3558 45.4687 20.7488C45.4687 24.7534 42.6985 26.3162 38.8299 26.3162H28.5612C27.4627 26.3162 27.0806 25.9744 27.0806 25.1441V7.66042C27.0806 6.68368 27.606 6.24414 28.991 6.24414H37.397C41.0746 6.24414 44.609 6.87902 44.609 11.3232ZM31.1881 9.4674H37.6836C39.8328 9.4674 40.4537 10.2976 40.4537 12.0558C40.4537 13.7651 39.8328 14.6441 37.6836 14.6441H31.1881V9.4674ZM38.4478 23.093H31.1881V19.4302C31.1881 18.2093 31.8567 17.6232 33.6239 17.6232H38.4478C40.7403 17.6232 41.409 18.5511 41.409 20.3581C41.409 22.2139 40.7403 23.093 38.4478 23.093Z" fill="#8C98A4"/>
<path fill-rule="evenodd" clip-rule="evenodd" d="M91.2716 18.2581L95.6657 25.9744C95.7612 26.072 95.7612 26.3162 95.4269 26.3162H91.7015C91.4261 26.3162 91.3271 26.1809 91.1926 25.9969C91.1872 25.9895 91.1817 25.982 91.1761 25.9744L87.2119 18.6488H83.5821C81.8149 18.6488 81.1463 19.2348 81.1463 20.4558V26.3162H77.5642C77.2299 26.3162 77.0866 26.1697 77.0866 25.8279V7.66042C77.0866 6.68368 77.6119 6.24414 78.997 6.24414H87.403C92.2746 6.24414 95.2358 7.56275 95.2358 12.4465C95.2358 16.2069 93.4687 17.672 91.2716 18.2581ZM81.1463 15.572H87.9761C90.5552 15.572 91.0806 14.5465 91.0806 12.4953C91.0806 10.493 90.5075 9.4674 87.9761 9.4674H81.1463V15.572Z" fill="#8C98A4"/>
</svg>
